<svg width="42" height="42" viewBox="0 0 42 42" fill="none" xmlns="http://www.w3.org/2000/svg">
<path d="M40.402 1.59976C38.2683 -0.53313 34.7969 -0.53354 32.6641 1.60025C29.9265 4.33771 26.9704 7.29378 20.8658 13.3981C20.7206 13.5428 20.6102 13.7188 20.5421 13.9125L17.4052 22.853C17.2312 23.349 17.3572 23.9011 17.7289 24.273C18.1005 24.6445 18.6509 24.7707 19.1489 24.5967L28.0895 21.4598C28.2831 21.3917 28.4591 21.2812 28.6038 21.1361C34.7048 15.0351 37.6661 12.0738 40.4021 9.33783C42.5348 7.20436 42.5348 3.73347 40.402 1.59976ZM20.929 21.0727L22.3458 17.0349L24.9669 19.656L20.929 21.0727ZM38.4677 7.40337L36.5332 9.33791L32.6638 5.46883L34.5983 3.53438C35.6647 2.46756 37.4008 2.46756 38.4677 3.53438C39.5336 4.60127 39.5336 6.33648 38.4677 7.40337Z" fill="black"/>
<path d="M41.5471 39.6653C39.7304 37.8487 33.6219 31.74 26.7206 24.8388L20.0527 27.1786C19.6123 27.3322 19.1563 27.4097 18.6942 27.4097C18.1478 27.4097 17.618 27.3032 17.1278 27.1008L21.4852 31.4582C22.3453 32.3174 21.7343 33.7931 20.5181 33.7931H9.57515C8.81957 33.7931 8.20729 33.1808 8.20729 32.4252V21.4823C8.20729 20.2637 9.68532 19.6563 10.5422 20.5152L14.9225 24.8955C14.5353 23.9717 14.481 22.9193 14.8222 21.9472L17.1617 15.2798C10.25 8.36815 4.13551 2.25356 2.33493 0.453056C1.47845 -0.406383 0 0.202123 0 1.4202V11.9071H2.73574C3.49132 11.9071 4.1036 12.5194 4.1036 13.275C4.1036 14.0306 3.49132 14.6429 2.73574 14.6429H0V17.3786H2.73574C3.49132 17.3786 4.1036 17.9909 4.1036 18.7465C4.1036 19.5021 3.49132 20.1143 2.73574 20.1143H0V22.8501H2.73574C3.49132 22.8501 4.1036 23.4624 4.1036 24.2179C4.1036 24.9735 3.49132 25.5858 2.73574 25.5858H0V28.3215H2.73574C3.49132 28.3215 4.1036 28.9338 4.1036 29.6894C4.1036 30.445 3.49132 31.0573 2.73574 31.0573H0V33.793H2.73574C3.49132 33.793 4.1036 34.4053 4.1036 35.1609C4.1036 35.9165 3.49132 36.5287 2.73574 36.5287H0V40.6323C0 41.3879 0.61228 42.0002 1.36787 42.0002H40.58C41.7969 42.0002 42.4061 40.5242 41.5471 39.6653Z" fill="black"/>
</svg>
