<svg width="39" height="40" viewBox="0 0 39 40" fill="none" xmlns="http://www.w3.org/2000/svg">
<path d="M1.22884 0L25.193 21.4346H37.7712L13.807 0H1.22884ZM0 0.93924V3.12042L24.1429 24.7148V22.5337L0 0.93924ZM5.4026 9.99097V12.9095L29.5455 34.5038V27.3441L24.1429 26.2468L5.4026 9.99097ZM4.43646 14.0835L0.815032 14.9884L25.109 36.7182L28.7304 35.8133L4.43646 14.0835ZM0 16.2979V18.3103L24.1429 39.9046V37.8922L0 16.2979ZM25.6623 22.9536V24.8078L31.0649 26.1581V36.7955L25.6623 38.1457V40H39V38.1457L33.5974 36.7955V26.1581L39 24.8078V22.9536H25.6623ZM35.1169 34.419V35.6095L36.9639 36.0711L35.1169 34.419Z" fill="black"/>
</svg>
