<svg width="42" height="42" viewBox="0 0 42 42" fill="none" xmlns="http://www.w3.org/2000/svg">
<path fill-rule="evenodd" clip-rule="evenodd" d="M1.91168e-05 3.81818C1.91168e-05 1.70946 1.70948 0 3.8182 0H30.5455C32.6542 0 34.3636 1.70946 34.3636 3.81818V9.54545H38.1818C40.2906 9.54545 42 11.2549 42 13.3636V19.0909C42 21.1997 40.2906 22.9091 38.1818 22.9091H34.3636V28.6364H38.1818C40.2906 28.6364 42 30.3458 42 32.4545V38.1818C42 40.2906 40.2906 42 38.1818 42H11.4545C9.34582 42 7.63636 40.2906 7.63636 38.1818V32.4545H3.81818C1.70946 32.4545 0 30.7451 0 28.6364V22.9091C0 20.8003 1.70946 19.0909 3.81818 19.0909H7.63636V13.3636H3.8182C1.70948 13.3636 1.91168e-05 11.6542 1.91168e-05 9.54545V3.81818ZM11.4545 13.3636V19.0909H22.9091V13.3636H11.4545ZM26.7273 13.3636V19.0909H38.1818V13.3636H26.7273ZM11.4545 32.4545V38.1818H22.9091V32.4545H11.4545ZM26.7273 32.4545V38.1818H38.1818V32.4545H26.7273ZM30.5455 28.6364V22.9091H19.0909V28.6364H30.5455ZM15.2727 28.6364L15.2727 22.9091H3.81818V28.6364H15.2727ZM30.5455 9.54545V3.81818H19.0909V9.54545H30.5455ZM15.2727 9.54545V3.81818H3.8182V9.54545H15.2727Z" fill="black"/>
</svg>
