<svg width="35" height="71" viewBox="0 0 35 71" fill="none" xmlns="http://www.w3.org/2000/svg">
<path d="M24.3124 41.429L19.277 28.3729C20.8255 27.8534 21.1702 26.4243 21.1702 24.5974C21.1702 24.5974 20.4117 25.9712 18.496 26.2642L17.9663 24.8881C17.8818 24.6706 17.6429 24.5117 17.4366 24.5208C17.2022 24.523 16.9937 24.6651 16.9126 24.8837L16.5012 25.9903C15.9265 25.6376 15.8024 25.0381 15.8024 24.5275C15.8024 23.6259 15.9432 22.5981 18.479 22.5981V18.0317H19.8279L21.1703 7.88894L19.6071 6.24016V0H18.4802V5.0523L17.964 4.50793H15.5692L15.0993 5.01612V0H13.9724V6.23674L12.4476 7.88894L13.7898 18.0317H15.0994V21.0611C15.0994 21.0611 13.4417 21.2019 13.4417 25.0596C13.4417 26.8898 14.2339 27.8399 15.6675 28.2366L10.9859 41.1192L0 49.5873H34.8846L24.3124 41.429ZM16.809 7.2781C17.6903 7.2781 18.4058 7.99254 18.4058 8.87503C18.4058 9.75752 17.6914 10.472 16.809 10.472C15.9266 10.472 15.2121 9.75752 15.2121 8.87503C15.2121 7.99254 15.9277 7.2781 16.809 7.2781ZM17.4423 36.0273L12.6481 39.5989L16.7966 28.4326C17.0671 28.4551 17.3465 28.4697 17.6463 28.4697C17.8322 28.4697 17.9811 28.445 18.1478 28.4337L22.6085 39.8759L17.4423 36.0273Z" fill="black"/>
<path d="M19.6078 58.6037H26.3697V71.0005H29.7507V55.2227H2.70312V71.0004H19.6079L19.6078 58.6037ZM16.2269 65.3656H15.6635H8.3381V59.1671V58.6037H16.227V65.3656H16.2269Z" fill="black"/>
</svg>
