<svg width="35" height="35" viewBox="0 0 35 35" fill="none" xmlns="http://www.w3.org/2000/svg">
<path d="M20.6836 9.54421C20.6836 8.66557 21.3958 7.9533 22.2745 7.9533H23.8654V6.36239C23.8654 5.48377 24.5777 4.77148 25.4563 4.77148C26.335 4.77148 27.0472 5.48377 27.0472 6.36239V7.9533H28.6381C29.5168 7.9533 30.229 8.66557 30.229 9.54421C30.229 10.4229 29.5168 11.1351 28.6381 11.1351H27.0472V12.726C27.0472 13.6047 26.335 14.3169 25.4563 14.3169C24.5777 14.3169 23.8654 13.6047 23.8654 12.726V11.1351H22.2745C21.3958 11.1351 20.6836 10.4229 20.6836 9.54421Z" fill="black"/>
<path d="M20.6836 22.2725C20.6836 21.3939 21.3958 20.6816 22.2745 20.6816H28.6381C29.5168 20.6816 30.229 21.3939 30.229 22.2725C30.229 23.1512 29.5168 23.8635 28.6381 23.8635H22.2745C21.3958 23.8635 20.6836 23.1512 20.6836 22.2725Z" fill="black"/>
<path d="M22.2745 27.0449C21.3958 27.0449 20.6836 27.7572 20.6836 28.6358C20.6836 29.5145 21.3958 30.2267 22.2745 30.2267H28.6381C29.5168 30.2267 30.229 29.5145 30.229 28.6358C30.229 27.7572 29.5168 27.0449 28.6381 27.0449H22.2745Z" fill="black"/>
<path d="M6.36435 7.95508C5.48572 7.95508 4.77344 8.66734 4.77344 9.54599C4.77344 10.4246 5.48572 11.1369 6.36435 11.1369H12.728C13.6066 11.1369 14.3189 10.4246 14.3189 9.54599C14.3189 8.66734 13.6066 7.95508 12.728 7.95508H6.36435Z" fill="black"/>
<path d="M7.83722 21.4942C7.21594 20.873 6.20863 20.873 5.58734 21.4942C4.96606 22.1155 4.96606 23.1228 5.58734 23.7441L7.2974 25.4542L5.57535 27.1762C4.95405 27.7974 4.95405 28.8048 5.57535 29.426C6.19663 30.0474 7.20393 30.0474 7.82523 29.426L9.54729 27.704L11.2805 29.4372C11.9017 30.0584 12.9091 30.0584 13.5303 29.4372C14.1516 28.8159 14.1516 27.8086 13.5303 27.1873L11.7972 25.4542L13.5276 23.7237C14.1489 23.1025 14.1489 22.0951 13.5276 21.4739C12.9063 20.8525 11.899 20.8525 11.2777 21.4739L9.54729 23.2043L7.83722 21.4942Z" fill="black"/>
<path fill-rule="evenodd" clip-rule="evenodd" d="M30.2273 0C32.8633 0 35 2.13683 35 4.77273V30.2273C35 32.8633 32.8633 35 30.2273 35H4.77273C2.13683 35 0 32.8633 0 30.2273V4.77273C0 2.13683 2.13683 0 4.77273 0H30.2273ZM30.2273 3.18182C31.1059 3.18182 31.8182 3.8941 31.8182 4.77273V15.9091H19.0909V3.18182H30.2273ZM31.8182 19.0909V30.2273C31.8182 31.1059 31.1059 31.8182 30.2273 31.8182H19.0909V19.0909H31.8182ZM4.77273 3.18182H15.9091V15.9091H3.18182V4.77273C3.18182 3.8941 3.8941 3.18182 4.77273 3.18182ZM3.18182 30.2273V19.0909H15.9091V31.8182H4.77273C3.8941 31.8182 3.18182 31.1059 3.18182 30.2273Z" fill="black"/>
</svg>
