<svg width="49" height="25" viewBox="0 0 49 25" fill="none" xmlns="http://www.w3.org/2000/svg">
<path d="M12.25 0C9.0011 0 5.88526 1.2908 3.58794 3.58812C1.29062 5.88544 0 9.0011 0 12.25C0 15.4989 1.29062 18.6149 3.58794 20.9123C5.88526 23.2096 9.0011 24.5 12.25 24.5C18.375 24.5 24.5 21.4375 27.5625 12.25C24.5 3.0625 18.375 0 12.25 0ZM12.25 6.125C12.25 6.125 18.375 6.125 21.4375 12.25C18.375 18.375 12.25 18.375 12.25 18.375C10.6255 18.375 9.06763 17.7296 7.91897 16.5809C6.77031 15.4323 6.125 13.8745 6.125 12.25C6.125 10.6255 6.77031 9.06772 7.91897 7.91906C9.06763 6.7704 10.6255 6.125 12.25 6.125Z" fill="black"/>
<path d="M36.75 0C39.9989 0 43.1147 1.2908 45.4121 3.58812C47.7094 5.88544 49 9.0011 49 12.25C49 15.4989 47.7094 18.6149 45.4121 20.9123C43.1147 23.2096 39.9989 24.5 36.75 24.5C30.625 24.5 24.5 21.4375 21.4375 12.25C24.5 3.0625 30.625 0 36.75 0ZM36.75 6.125C36.75 6.125 30.625 6.125 27.5625 12.25C30.625 18.375 36.75 18.375 36.75 18.375C38.3745 18.375 39.9324 17.7296 41.081 16.5809C42.2297 15.4323 42.875 13.8745 42.875 12.25C42.875 10.6255 42.2297 9.06772 41.081 7.91906C39.9324 6.7704 38.3745 6.125 36.75 6.125Z" fill="black"/>
</svg>
