<svg width="43" height="43" viewBox="0 0 43 43" fill="none" xmlns="http://www.w3.org/2000/svg">
<path d="M40.016 20.2191L22.7969 3L11.6001 14.1968L28.8192 31.4159L40.016 20.2191Z" stroke="#020202" stroke-width="3.99253" stroke-miterlimit="10"/>
<path d="M28.8171 31.4132L26.0839 34.1464C25.428 34.7716 24.5567 35.1204 23.6505 35.1204C22.7444 35.1204 21.873 34.7716 21.2171 34.1464L17.6905 30.6197L9.15601 38.9426C8.46874 39.6306 7.53638 40.0175 6.56392 40.0182C5.60814 39.9998 4.69774 39.6071 4.0284 38.9245C3.35906 38.242 2.9842 37.3241 2.98438 36.3682C3.00351 35.4202 3.38901 34.5165 4.06 33.8466L12.4534 25.3826L8.92677 21.856C8.30154 21.2001 7.95275 20.3288 7.95275 19.4226C7.95275 18.5165 8.30154 17.6451 8.92677 16.9892L11.5894 14.1855L28.8171 31.4132Z" stroke="#020202" stroke-width="3.99253" stroke-miterlimit="10"/>
<path d="M27.9519 8.15625L20.2109 15.9149" stroke="#020202" stroke-width="3.99253" stroke-miterlimit="10"/>
</svg>
