<svg width="40" height="44" viewBox="0 0 40 44" fill="none" xmlns="http://www.w3.org/2000/svg">
<path fill-rule="evenodd" clip-rule="evenodd" d="M27.5123 24.7545C34.4091 24.7545 40 19.213 40 12.3772C40 5.54148 34.4091 0 27.5123 0C20.6156 0 15.0247 5.54148 15.0247 12.3772C15.0247 14.7992 15.7265 17.0586 16.9396 18.9667L0 35.7565L8.3171 44L12.2416 40.1102L7.849 35.7565L12.2496 31.3947L16.6422 35.7485L20.5668 31.8587L16.1741 27.505L20.8641 22.8565C22.7892 24.0589 25.0688 24.7545 27.5123 24.7545ZM27.5123 19.2535C31.3438 19.2535 34.4499 16.1749 34.4499 12.3772C34.4499 8.5796 31.3438 5.501 27.5123 5.501C23.6809 5.501 20.5748 8.5796 20.5748 12.3772C20.5748 16.1749 23.6809 19.2535 27.5123 19.2535Z" fill="black"/>
</svg>
