<svg width="41" height="42" viewBox="0 0 41 42" fill="none" xmlns="http://www.w3.org/2000/svg">
<path d="M34.2897 26.9514L32.0918 26.4227V21.0049H33.1524V18.7284C33.1524 17.0176 31.7606 15.6259 30.0499 15.6259H17.0376C15.3268 15.6259 13.9351 17.0176 13.9351 18.7284V21.0049H14.9956V22.31L11.0918 21.3709L6.90116 0H0V2.47698H4.86269L9.27042 24.9549L10.1213 29.2939C10.8922 29.0276 11.7192 28.8826 12.5794 28.8826C16.7412 28.8826 20.1269 32.2684 20.1269 36.4302C20.1269 36.4977 20.126 36.565 20.1242 36.6321H30.7068C31.1572 33.5301 33.8332 31.1394 37.058 31.1394C37.4608 31.1394 37.8544 31.1785 38.2368 31.2497C37.9243 29.1686 36.3892 27.4565 34.2897 26.9514Z" fill="black"/>
<path d="M12.5783 31.3633C9.78248 31.3633 7.50781 33.6379 7.50781 36.4339C7.50781 39.2298 9.78248 41.5044 12.5783 41.5044C15.3742 41.5044 17.6489 39.2297 17.6489 36.4339C17.6489 33.6379 15.3742 31.3633 12.5783 31.3633Z" fill="black"/>
<path d="M37.0593 33.6172C34.8857 33.6172 33.1172 35.3856 33.1172 37.5593C33.1172 39.7331 34.8856 41.5015 37.0593 41.5015C39.2331 41.5015 41.0015 39.7331 41.0015 37.5593C41.0015 35.3856 39.233 33.6172 37.0593 33.6172Z" fill="black"/>
</svg>
