<svg width="45" height="41" viewBox="0 0 45 41" fill="none" xmlns="http://www.w3.org/2000/svg">
<mask id="path-1-inside-1_262_8754" fill="white">
<path d="M35.9046 24.5166L36.3753 24.9954L38.0055 26.6759C38.2601 26.9195 38.4623 27.2155 38.5991 27.5447C38.6928 27.7762 38.7449 28.0233 38.7529 28.274C38.7581 28.4616 38.7157 28.6474 38.6299 28.813C38.5742 28.9224 38.506 29.0246 38.4269 29.1174L37.701 29.8657C37.502 30.1057 37.2235 30.2605 36.9197 30.3001C36.6765 30.3159 36.4334 30.269 36.2122 30.1637C36.0065 30.0652 35.8167 29.9348 35.6494 29.7769C35.5355 29.6714 35.4238 29.5636 35.3141 29.4535L33.0133 27.0342C32.9595 26.9721 32.894 26.9219 32.8209 26.8866C32.7477 26.8513 32.6684 26.8316 32.5877 26.8286C32.507 26.8256 32.4265 26.8395 32.3512 26.8694C32.2758 26.8993 32.207 26.9445 32.149 27.0025L32.0475 27.123C31.979 27.1924 31.9245 27.275 31.8871 27.3662C31.8497 27.4574 31.8302 27.5553 31.8296 27.6543C31.8291 27.7533 31.8475 27.8515 31.8838 27.9431C31.9201 28.0348 31.9737 28.1181 32.0414 28.1883L34.7789 30.9501C35.0026 31.1634 35.1853 31.4184 35.3172 31.7016C35.4228 31.9163 35.4816 32.1522 35.4894 32.3928C35.4936 32.5804 35.4513 32.7659 35.3664 32.9318C35.291 33.0728 35.1979 33.2028 35.0895 33.3187L34.1729 34.2636C33.9801 34.4902 33.721 34.646 33.4347 34.7075C33.2093 34.7413 32.9793 34.714 32.7673 34.6282C32.5591 34.5441 32.3682 34.4204 32.2044 34.2636C32.0682 34.1345 31.9349 34.0024 31.8045 33.8672L28.9624 30.8835C28.914 30.8285 28.8552 30.7843 28.7897 30.7536C28.7242 30.7229 28.6532 30.7063 28.5812 30.7048C28.5092 30.7033 28.4377 30.717 28.371 30.745C28.3044 30.773 28.2439 30.8147 28.1934 30.8677L27.9289 31.1435C27.8227 31.257 27.7638 31.4088 27.7649 31.5665C27.7661 31.7242 27.8272 31.8752 27.9351 31.9869L30.5557 34.6314C30.8053 34.874 31.0152 35.1567 31.177 35.4685C31.2884 35.6838 31.3515 35.9222 31.3616 36.1661C31.3672 36.3558 31.3248 36.5437 31.2386 36.7114C31.162 36.8505 31.0679 36.9785 30.9586 37.0919L30.2327 37.8434C29.5437 38.4733 28.7543 38.3285 27.8643 37.409L25.1452 34.6694C25.0764 34.5977 24.9829 34.5568 24.8851 34.5556C24.7872 34.5545 24.6928 34.5931 24.6224 34.6631L24.2656 34.9612C24.2116 35.0148 24.1689 35.0793 24.1401 35.1507C24.1113 35.2221 24.097 35.2988 24.0982 35.3761C24.0993 35.4534 24.1159 35.5296 24.1468 35.6001C24.1777 35.6705 24.2223 35.7336 24.2779 35.7856L26.0619 37.6405C26.3118 37.8692 26.494 38.1659 26.5878 38.4966C26.6447 38.7326 26.6479 38.9789 26.5971 39.2164C26.5442 39.4576 26.4331 39.6812 26.2741 39.8664L25.5482 40.6147C25.3373 40.8372 25.0554 40.9735 24.7546 40.9983C24.5173 41.0085 24.2804 40.9719 24.0564 40.8905C23.7959 40.7856 23.5607 40.6233 23.3674 40.4149L8.61859 25.2141C7.89379 24.4777 7.2501 23.6611 6.69925 22.779C6.22981 22.0311 5.8478 21.2286 5.56118 20.3882C5.31779 19.6628 5.16482 18.9084 5.10595 18.1433C5.05048 17.4701 5.09508 16.7922 5.23821 16.133L2.6391 13.4537L0 10.8917L10.4026 0L15.8469 5.72328L13.3308 8.31382L13.2755 8.37723L13.2386 8.41845C12.7358 8.98827 12.3581 9.66313 12.1312 10.397C11.908 11.1229 11.8471 11.8915 11.9528 12.6451C12.1076 13.717 12.6057 14.7048 13.3677 15.4513L14.1121 16.2154L14.1798 16.282L14.2259 16.3264C14.7987 16.8537 15.4889 17.2271 16.2352 17.4135C16.9816 17.5999 17.7611 17.5936 18.5044 17.395C19.3926 17.15 20.1975 16.6561 20.8298 15.9681L24.2317 12.458L25.4375 13.7073L25.4498 13.7295L35.8985 24.5039L35.9046 24.5166ZM40.0263 16.3676C40.0533 16.737 40.0533 17.108 40.0263 17.4774C39.9675 18.2317 39.8166 18.9753 39.5772 19.6906C39.2989 20.5119 38.9272 21.2963 38.4699 22.0275C38.3614 22.2037 38.2486 22.3771 38.1316 22.5475L37.9593 22.3763L25.2652 9.2714C25.1297 9.13121 24.9688 9.01993 24.7916 8.94389C24.6143 8.86786 24.4243 8.82858 24.2324 8.82828C24.0404 8.82799 23.8503 8.86669 23.6728 8.94218C23.4954 9.01766 23.3341 9.12846 23.1982 9.26822L18.7659 13.8405C18.5047 14.1401 18.1684 14.3595 17.7939 14.4747C17.5197 14.5514 17.2314 14.558 16.9542 14.4937L16.9388 14.4905C16.6464 14.4186 16.3765 14.2713 16.1545 14.0625L15.4347 13.3237C15.1297 13.0381 14.9243 12.6571 14.8503 12.2393C14.803 11.9308 14.824 11.6154 14.9118 11.3166L14.9211 11.2944C15.0239 10.9715 15.1927 10.6753 15.4163 10.4256L15.4255 10.4161L20.4084 5.27937C20.9321 4.74068 21.5584 4.31964 22.2478 4.04276C22.9472 3.76152 23.6793 3.57604 24.4255 3.49104C24.932 3.43183 25.4414 3.40218 25.9511 3.40226C26.2096 3.40236 26.4681 3.40976 26.7262 3.42445C28.0963 3.50185 29.4588 3.68629 30.8018 3.97617L34.6435 0.0190249L45 10.6951L40.1094 15.7335C40.0389 15.9365 40.0116 16.1528 40.0294 16.3676H40.0263Z"/>
</mask>
<path d="M35.9046 24.5166L36.3753 24.9954L38.0055 26.6759C38.2601 26.9195 38.4623 27.2155 38.5991 27.5447C38.6928 27.7762 38.7449 28.0233 38.7529 28.274C38.7581 28.4616 38.7157 28.6474 38.6299 28.813C38.5742 28.9224 38.506 29.0246 38.4269 29.1174L37.701 29.8657C37.502 30.1057 37.2235 30.2605 36.9197 30.3001C36.6765 30.3159 36.4334 30.269 36.2122 30.1637C36.0065 30.0652 35.8167 29.9348 35.6494 29.7769C35.5355 29.6714 35.4238 29.5636 35.3141 29.4535L33.0133 27.0342C32.9595 26.9721 32.894 26.9219 32.8209 26.8866C32.7477 26.8513 32.6684 26.8316 32.5877 26.8286C32.507 26.8256 32.4265 26.8395 32.3512 26.8694C32.2758 26.8993 32.207 26.9445 32.149 27.0025L32.0475 27.123C31.979 27.1924 31.9245 27.275 31.8871 27.3662C31.8497 27.4574 31.8302 27.5553 31.8296 27.6543C31.8291 27.7533 31.8475 27.8515 31.8838 27.9431C31.9201 28.0348 31.9737 28.1181 32.0414 28.1883L34.7789 30.9501C35.0026 31.1634 35.1853 31.4184 35.3172 31.7016C35.4228 31.9163 35.4816 32.1522 35.4894 32.3928C35.4936 32.5804 35.4513 32.7659 35.3664 32.9318C35.291 33.0728 35.1979 33.2028 35.0895 33.3187L34.1729 34.2636C33.9801 34.4902 33.721 34.646 33.4347 34.7075C33.2093 34.7413 32.9793 34.714 32.7673 34.6282C32.5591 34.5441 32.3682 34.4204 32.2044 34.2636C32.0682 34.1345 31.9349 34.0024 31.8045 33.8672L28.9624 30.8835C28.914 30.8285 28.8552 30.7843 28.7897 30.7536C28.7242 30.7229 28.6532 30.7063 28.5812 30.7048C28.5092 30.7033 28.4377 30.717 28.371 30.745C28.3044 30.773 28.2439 30.8147 28.1934 30.8677L27.9289 31.1435C27.8227 31.257 27.7638 31.4088 27.7649 31.5665C27.7661 31.7242 27.8272 31.8752 27.9351 31.9869L30.5557 34.6314C30.8053 34.874 31.0152 35.1567 31.177 35.4685C31.2884 35.6838 31.3515 35.9222 31.3616 36.1661C31.3672 36.3558 31.3248 36.5437 31.2386 36.7114C31.162 36.8505 31.0679 36.9785 30.9586 37.0919L30.2327 37.8434C29.5437 38.4733 28.7543 38.3285 27.8643 37.409L25.1452 34.6694C25.0764 34.5977 24.9829 34.5568 24.8851 34.5556C24.7872 34.5545 24.6928 34.5931 24.6224 34.6631L24.2656 34.9612C24.2116 35.0148 24.1689 35.0793 24.1401 35.1507C24.1113 35.2221 24.097 35.2988 24.0982 35.3761C24.0993 35.4534 24.1159 35.5296 24.1468 35.6001C24.1777 35.6705 24.2223 35.7336 24.2779 35.7856L26.0619 37.6405C26.3118 37.8692 26.494 38.1659 26.5878 38.4966C26.6447 38.7326 26.6479 38.9789 26.5971 39.2164C26.5442 39.4576 26.4331 39.6812 26.2741 39.8664L25.5482 40.6147C25.3373 40.8372 25.0554 40.9735 24.7546 40.9983C24.5173 41.0085 24.2804 40.9719 24.0564 40.8905C23.7959 40.7856 23.5607 40.6233 23.3674 40.4149L8.61859 25.2141C7.89379 24.4777 7.2501 23.6611 6.69925 22.779C6.22981 22.0311 5.8478 21.2286 5.56118 20.3882C5.31779 19.6628 5.16482 18.9084 5.10595 18.1433C5.05048 17.4701 5.09508 16.7922 5.23821 16.133L2.6391 13.4537L0 10.8917L10.4026 0L15.8469 5.72328L13.3308 8.31382L13.2755 8.37723L13.2386 8.41845C12.7358 8.98827 12.3581 9.66313 12.1312 10.397C11.908 11.1229 11.8471 11.8915 11.9528 12.6451C12.1076 13.717 12.6057 14.7048 13.3677 15.4513L14.1121 16.2154L14.1798 16.282L14.2259 16.3264C14.7987 16.8537 15.4889 17.2271 16.2352 17.4135C16.9816 17.5999 17.7611 17.5936 18.5044 17.395C19.3926 17.15 20.1975 16.6561 20.8298 15.9681L24.2317 12.458L25.4375 13.7073L25.4498 13.7295L35.8985 24.5039L35.9046 24.5166ZM40.0263 16.3676C40.0533 16.737 40.0533 17.108 40.0263 17.4774C39.9675 18.2317 39.8166 18.9753 39.5772 19.6906C39.2989 20.5119 38.9272 21.2963 38.4699 22.0275C38.3614 22.2037 38.2486 22.3771 38.1316 22.5475L37.9593 22.3763L25.2652 9.2714C25.1297 9.13121 24.9688 9.01993 24.7916 8.94389C24.6143 8.86786 24.4243 8.82858 24.2324 8.82828C24.0404 8.82799 23.8503 8.86669 23.6728 8.94218C23.4954 9.01766 23.3341 9.12846 23.1982 9.26822L18.7659 13.8405C18.5047 14.1401 18.1684 14.3595 17.7939 14.4747C17.5197 14.5514 17.2314 14.558 16.9542 14.4937L16.9388 14.4905C16.6464 14.4186 16.3765 14.2713 16.1545 14.0625L15.4347 13.3237C15.1297 13.0381 14.9243 12.6571 14.8503 12.2393C14.803 11.9308 14.824 11.6154 14.9118 11.3166L14.9211 11.2944C15.0239 10.9715 15.1927 10.6753 15.4163 10.4256L15.4255 10.4161L20.4084 5.27937C20.9321 4.74068 21.5584 4.31964 22.2478 4.04276C22.9472 3.76152 23.6793 3.57604 24.4255 3.49104C24.932 3.43183 25.4414 3.40218 25.9511 3.40226C26.2096 3.40236 26.4681 3.40976 26.7262 3.42445C28.0963 3.50185 29.4588 3.68629 30.8018 3.97617L34.6435 0.0190249L45 10.6951L40.1094 15.7335C40.0389 15.9365 40.0116 16.1528 40.0294 16.3676H40.0263Z" fill="black" stroke="black" stroke-width="63.1579" mask="url(#path-1-inside-1_262_8754)"/>
</svg>
