<svg width="35" height="43" viewBox="0 0 35 43" fill="none" xmlns="http://www.w3.org/2000/svg">
<path fill-rule="evenodd" clip-rule="evenodd" d="M18.289 0.000294706C19.7527 -0.00192827 21.0516 -0.00389469 22.2513 0.488729C23.451 0.981352 24.3683 1.89328 25.4015 2.92083C27.4491 4.9568 29.4999 6.9897 31.5536 9.01943C32.5901 10.0438 33.5102 10.953 34.007 12.1423C34.504 13.3316 34.5021 14.6193 34.4997 16.0702C34.4915 21.4479 34.4995 26.8256 34.4995 32.2035C34.4997 34.0984 34.4997 35.731 34.3224 37.0382C34.1323 38.4393 33.7038 39.7825 32.6048 40.872C31.506 41.9613 30.151 42.3862 28.7376 42.5745C27.4187 42.7502 25.7718 42.7502 23.8603 42.75H10.6392C8.72772 42.7502 7.08076 42.7502 5.76187 42.5745C4.34845 42.3862 2.99359 41.9613 1.89463 40.872C0.795693 39.7825 0.367166 38.4393 0.177138 37.0382C-0.000188829 35.731 -0.000102534 34.0984 5.2766e-06 32.2035L2.6868e-05 10.688C2.6868e-05 10.6409 5.2766e-06 10.594 5.2766e-06 10.5473C-0.000102534 8.65242 -0.000188829 7.0198 0.177138 5.71237C0.367166 4.31123 0.795692 2.96815 1.89465 1.87877C2.99359 0.789364 4.34845 0.364563 5.76187 0.176187C7.08074 0.000401687 8.7277 0.00048723 10.6392 0.000594104C13.1891 0.000743727 15.7391 0.00418491 18.289 0.000294706ZM25.243 19.8639C26.085 20.6985 26.085 22.052 25.243 22.8867L17.5298 30.5328C16.1844 31.8666 14.0027 31.8666 12.6572 30.5328L9.2564 27.1616C8.41436 26.3269 8.41436 24.9735 9.2564 24.1388C10.0985 23.3041 11.4637 23.3041 12.3058 24.1388L15.0935 26.9023L22.1937 19.8639C23.0357 19.0292 24.401 19.0292 25.243 19.8639Z" fill="black"/>
</svg>
