<svg width="50" height="46" viewBox="0 0 50 46" fill="none" xmlns="http://www.w3.org/2000/svg">
<path d="M41.724 6.07394L41.7239 6.07395L48.7946 22.3676C48.9441 22.5619 49.0375 22.8051 49.0375 23.0733C49.0375 27.8073 45.3105 31.6608 40.7267 31.6608C36.1429 31.6608 32.4158 27.8073 32.4158 23.0733C32.4158 23.0674 32.4166 23.0621 32.4171 23.0595L32.4171 23.059C32.4175 23.0567 32.4175 23.0561 32.4176 23.056V23.0556C32.4184 22.9895 32.4246 22.9236 32.4368 22.8581L32.4368 22.858C32.4383 22.8499 32.4408 22.8396 32.443 22.8307C32.4443 22.825 32.4456 22.8199 32.4464 22.8163L32.4464 22.816C32.4586 22.7623 32.4745 22.7089 32.4943 22.6567L32.4944 22.6565C32.4965 22.6512 32.4983 22.6458 32.5005 22.6394C32.5026 22.6333 32.505 22.6264 32.508 22.6193L32.5082 22.6188L32.5082 22.6186L32.5084 22.6182L32.5091 22.6161C32.5094 22.6151 32.5099 22.6136 32.5105 22.6117C32.5111 22.6102 32.5117 22.6086 32.5124 22.6068L32.5125 22.6067L38.999 7.65918H28.2265C28.0046 8.30467 27.6067 8.86284 27.0916 9.27433V36.8687H36.5242C36.9385 36.8687 37.3176 37.1079 37.507 37.4872L40.4032 43.2899C40.5103 43.4655 40.5721 43.6735 40.5721 43.8963C40.5721 44.5253 40.0783 45.0375 39.4667 45.0375C39.4664 45.0375 39.466 45.0375 39.4657 45.0375L39.4624 45.0381V45.0375H10.5164C10.13 45.0375 9.77258 44.8295 9.5721 44.4897L9.6044 44.4707L9.57209 44.4897C9.3719 44.1501 9.35736 43.7271 9.53368 43.3736L9.56723 43.3904L9.53368 43.3736L12.4714 37.4872C12.6608 37.1079 13.0399 36.8687 13.4542 36.8687H22.887V9.24778C22.3881 8.83892 22.0032 8.29053 21.7861 7.65918H10.9798L17.3881 22.4268C17.5112 22.6107 17.5842 22.8328 17.5842 23.0733C17.5842 27.8073 13.8571 31.6608 9.27333 31.6608C4.68954 31.6608 0.9625 27.8073 0.9625 23.0733C0.9625 22.8328 1.03569 22.6105 1.15855 22.4266L8.2549 6.07417L8.25552 6.07274L8.25555 6.07275L8.25585 6.07214L8.25588 6.07207L8.26472 6.05167L8.26474 6.05163C8.28936 5.99501 8.31855 5.94204 8.35062 5.89187L8.35063 5.89186C8.35612 5.88327 8.36379 5.87294 8.37017 5.86437L41.724 6.07394ZM41.724 6.07394L41.7233 6.07264M41.724 6.07394L41.7233 6.07264M8.6308 5.59288C8.58937 5.62341 8.55035 5.65667 8.51333 5.69309C8.49907 5.70691 8.48578 5.72109 8.473 5.73473L8.47254 5.73522L8.4723 5.73548C8.43833 5.77242 8.40741 5.81171 8.37863 5.8528L8.82799 5.47511M8.6308 5.59288C8.63355 5.59078 8.6362 5.58864 8.6391 5.58628C8.6409 5.5848 8.6428 5.58324 8.64489 5.58154C8.65009 5.57729 8.6562 5.5724 8.66296 5.56774L8.66299 5.56772C8.71544 5.53166 8.77078 5.50126 8.82799 5.47511M8.6308 5.59288C8.63087 5.59282 8.63095 5.59276 8.63103 5.59271L8.65327 5.6229L8.63059 5.59303C8.63066 5.59298 8.63073 5.59293 8.6308 5.59288ZM8.82799 5.47511C8.83953 5.4698 8.85284 5.46488 8.86424 5.46066C8.86944 5.45873 8.87424 5.45695 8.87831 5.45535L8.89206 5.49024M8.82799 5.47511L9.07513 5.39774C9.05619 5.40122 9.03808 5.40569 9.02095 5.40993L9.01659 5.411C9.01659 5.411 9.01659 5.411 9.01658 5.41101C8.96916 5.42268 8.92311 5.43756 8.87822 5.45538L8.89206 5.49024M41.7233 6.07264L41.7233 6.07255M41.7233 6.07264L41.7233 6.07255M41.7233 6.07255L41.7233 6.07252L41.7233 6.07249L41.7233 6.07246L41.7233 6.07244L41.7232 6.07241L41.7232 6.07238L41.7232 6.07235L41.7232 6.07233L41.7232 6.0723L41.7232 6.07227L41.7232 6.07225L41.7231 6.07222L41.7231 6.07219L41.7231 6.07216L41.7231 6.07214L41.7231 6.07211L41.7231 6.07208L41.7231 6.07205L41.7231 6.07203L41.723 6.072L41.723 6.07197L41.723 6.07192L41.723 6.07189L41.723 6.07186L41.723 6.07184L41.7229 6.07181L41.7229 6.07178L41.7229 6.07175L41.7229 6.07173L41.7229 6.0717L41.7229 6.07167L41.7229 6.07165L41.7229 6.07162L41.7228 6.07159L41.7228 6.07156L41.7228 6.07154L41.7228 6.07151L41.7228 6.07148L41.7228 6.07146L41.7228 6.07143L41.7228 6.0714L41.7227 6.07138L41.7227 6.07135L41.7227 6.07132L41.7227 6.0713L41.7227 6.07127L41.7227 6.07124L41.7141 6.05145L41.7141 6.05141L41.7233 6.07255ZM41.5065 5.73523L41.5066 5.73535C41.5402 5.77213 41.5714 5.81117 41.6003 5.85267C41.6033 5.85705 41.6065 5.86123 41.6101 5.86605L41.6133 5.87026C41.618 5.87655 41.6233 5.88376 41.6282 5.89165C41.6283 5.89172 41.6283 5.8918 41.6284 5.89188L41.5966 5.91185L41.5065 5.73523ZM41.5065 5.73523C41.4934 5.72103 41.48 5.70688 41.466 5.69308L41.4659 5.693M41.5065 5.73523L41.4659 5.693M41.4659 5.693C41.4288 5.65677 41.3897 5.62317 41.348 5.59249L41.3258 5.62268M41.4659 5.693L41.316 5.56743L41.3161 5.56752C41.3229 5.57218 41.329 5.57707 41.3342 5.58132L41.3376 5.5841C41.3415 5.58735 41.3449 5.5901 41.3485 5.59282L41.3258 5.62268M41.3258 5.62268C41.366 5.65226 41.4038 5.68471 41.4396 5.7198L27.0918 3.68857M41.3258 5.62268C41.3216 5.6195 41.3176 5.61619 41.3135 5.61287C41.3074 5.60789 41.3014 5.6029 41.2948 5.5984C41.2444 5.56396 41.191 5.53438 41.1355 5.509M41.1355 5.509L41.1512 5.47494C41.1511 5.47493 41.1511 5.47491 41.1511 5.47489C41.1395 5.46958 41.1262 5.46465 41.1148 5.46043C41.1096 5.45851 41.1048 5.45673 41.1008 5.45513C41.0558 5.43735 41.0099 5.42247 40.9625 5.41078L40.9599 5.41015C40.9422 5.40578 40.9234 5.40114 40.9041 5.39755C40.9041 5.39754 40.904 5.39753 40.904 5.39752L40.8971 5.43439M41.1355 5.509C41.1252 5.50424 41.1146 5.50034 41.104 5.49641C41.0983 5.49433 41.0926 5.49224 41.087 5.49002L41.1355 5.509ZM40.8971 5.43439C40.8345 5.42247 40.7709 5.41452 40.7057 5.41452H28.2259M40.8971 5.43439C40.9153 5.43778 40.9332 5.44218 40.9512 5.44662L40.9535 5.44719L40.8971 5.43439ZM28.2259 5.41452L28.2617 5.40339C28.259 5.39458 28.2562 5.3858 28.2534 5.37702H28.2259V5.41452ZM28.2259 5.41452C28.0123 4.72781 27.5973 4.13557 27.0543 3.70668M27.0543 3.70668H27.0918V3.68857M27.0543 3.70668V2.10369C27.0543 1.49423 26.5761 1 25.9864 1H23.9927C23.403 1 22.9247 1.49423 22.9247 2.10369V3.73295L27.0918 3.68857M27.0543 3.70668L27.0776 3.67725C27.0823 3.68101 27.0871 3.68479 27.0918 3.68857M8.89206 5.49024C8.93542 5.47302 8.97985 5.45867 9.02556 5.44741L8.89206 5.49024ZM9.27333 9.30938L14.7508 21.9321H3.79585L9.27333 9.30938ZM26.2148 6.48135C26.2148 7.17192 25.6715 7.73141 25.0064 7.73141C24.3411 7.73141 23.7978 7.1717 23.7978 6.48135C23.7978 5.79078 24.3411 5.23129 25.0064 5.23129C25.6715 5.23107 26.2148 5.79077 26.2148 6.48135ZM46.183 21.9321H35.2278L40.7055 9.30938L46.183 21.9321Z" fill="black" stroke="black" stroke-width="0.075"/>
</svg>
