<svg width="40" height="40" viewBox="0 0 40 40" fill="none" xmlns="http://www.w3.org/2000/svg">
<path d="M15.8008 0.00182343H26.5691L39.9982 13.4309V24.1992L15.8008 0.00182343Z" fill="black"/>
<path d="M5.8756 32.4492L0 26.5736V15.8053L11.2598 27.065L5.8756 32.4492Z" fill="black"/>
<path d="M19.9976 18.3203L1.67578 -0.00148201H12.4441L25.3818 12.9362L19.9976 18.3203Z" fill="black"/>
<path d="M34.1236 4.19727L29.9258 -0.000473976H38.3213L34.1236 4.19727Z" fill="black"/>
<path d="M35.8008 5.87836L39.9985 1.68061V10.0762L35.8008 5.87836Z" fill="black"/>
<path d="M13.4303 40L7.55469 34.1244L12.9389 28.7402L24.1986 40H13.4303Z" fill="black"/>
<path d="M0 10.0762V1.68061L4.19774 5.87836L0 10.0762Z" fill="black"/>
<path d="M21.6758 19.9985L27.0599 14.6143L39.9976 27.552V38.3203L21.6758 19.9985Z" fill="black"/>
<path d="M0 40V29.9266L10.0734 40H0Z" fill="black"/>
<path d="M29.9258 40L34.1236 35.8023L38.3213 40H29.9258Z" fill="black"/>
<path d="M27.0621 39.5113L0.492188 12.9414L5.87627 7.55732L32.4461 34.1272L27.0621 39.5113Z" fill="black"/>
</svg>
