<svg width="40" height="40" viewBox="0 0 40 40" fill="none" xmlns="http://www.w3.org/2000/svg">
<path d="M36.087 26.9565H29.5652V10.4348H36.087C36.8073 10.4348 37.3913 9.85078 37.3913 9.13039V3.91305C37.3913 3.19273 36.8073 2.60867 36.087 2.60867H29.3409C28.8024 1.09055 27.3526 0 25.6522 0C23.9518 0 22.502 1.09055 21.9635 2.60867H18.4713C17.9329 1.09055 16.483 0 14.7826 0C13.0821 0 11.6323 1.09055 11.0939 2.60867H7.60172C7.06328 1.09055 5.61352 0 3.91305 0C1.75539 0 0 1.75539 0 3.91305V33.4783C0 35.6359 1.75539 37.3913 3.91305 37.3913C5.61352 37.3913 7.06328 36.3008 7.60172 34.7827H11.0939C11.6323 36.3009 13.0822 37.3913 14.7826 37.3913C16.483 37.3913 17.9328 36.3008 18.4713 34.7827H21.9634C22.5019 36.3009 23.9517 37.3913 25.6521 37.3913C27.3525 37.3913 28.8023 36.3008 29.3408 34.7827H32.1738V36.087C32.1738 38.2447 33.9292 40.0001 36.0869 40.0001C38.2445 40.0001 40 38.2446 40 36.0869V30.8695C40 28.712 38.2446 26.9565 36.087 26.9565ZM29.5652 5.21742H34.7827V7.82609H29.5652V5.21742ZM5.21742 33.4783C5.21742 34.1975 4.63227 34.7827 3.91305 34.7827C3.19383 34.7827 2.60867 34.1975 2.60867 33.4783V3.91305C2.60867 3.19383 3.19383 2.60867 3.91305 2.60867C4.63227 2.60867 5.21742 3.19383 5.21742 3.91305V33.4783ZM10.8695 32.1739H7.82609V29.5652H10.8695V32.1739ZM10.8695 26.9565H7.82609V10.4348H10.8695V26.9565ZM10.8695 7.82609H7.82609V5.21742H10.8695V7.82609ZM16.087 33.4783C16.087 34.1975 15.5018 34.7827 14.7826 34.7827C14.0634 34.7827 13.4782 34.1975 13.4782 33.4783V3.91305C13.4782 3.19383 14.0634 2.60867 14.7826 2.60867C15.5018 2.60867 16.087 3.19383 16.087 3.91305V33.4783ZM21.7391 32.1739H18.6957V29.5652H21.7391V32.1739ZM21.7391 26.9565H18.6957V10.4348H21.7391V26.9565ZM21.7391 7.82609H18.6957V5.21742H21.7391V7.82609ZM26.9565 28.2609V33.4783C26.9565 34.1975 26.3713 34.7827 25.6521 34.7827C24.9329 34.7827 24.3477 34.1975 24.3477 33.4783V3.91305C24.3477 3.19383 24.9329 2.60867 25.6521 2.60867C26.3713 2.60867 26.9565 3.19383 26.9565 3.91305V28.2609ZM37.3913 36.0869C37.3913 36.8062 36.8062 37.3913 36.087 37.3913C35.3677 37.3913 34.7826 36.8062 34.7826 36.0869V33.4783C34.7826 32.758 34.1986 32.1739 33.4782 32.1739H29.5652V29.5652H36.0869C36.8061 29.5652 37.3913 30.1504 37.3913 30.8696V36.0869H37.3913Z" fill="black"/>
</svg>
