<svg width="42" height="42" viewBox="0 0 42 42" fill="none" xmlns="http://www.w3.org/2000/svg">
<path d="M9.60798 13.0593C9.48313 13.2325 9.37793 13.4226 9.29424 13.6239M9.60798 13.0593L9.8108 13.2054L9.60782 13.0595C9.60787 13.0594 9.60793 13.0594 9.60798 13.0593ZM9.60798 13.0593C9.79269 12.8025 10.0157 12.5836 10.2618 12.408L10.262 12.4078C10.7545 12.057 11.336 11.8739 11.9324 11.8732H11.9327C12.2883 11.8732 12.6512 11.9397 12.9978 12.0797L12.9042 12.3115L12.9976 12.0797C13.3443 12.2194 13.672 12.4335 13.9495 12.7115M9.29424 13.6239L20.343 19.4586L20.5198 19.2818M9.29424 13.6239L9.28976 13.6225L9.21011 13.8491L0.892669 37.5058L0.892586 37.5058L0.890552 37.5121L0.86977 37.5767L0.869697 37.5766L0.86794 37.5826C0.788984 37.8504 0.749915 38.1256 0.75 38.3958L1 38.3957L0.75 38.3956C0.749829 38.7891 0.832449 39.1688 0.978739 39.5101L0.978802 39.5102C1.1985 40.0218 1.55641 40.4499 2.00707 40.7569L2.00727 40.7571C2.23308 40.9106 2.4835 41.0337 2.75256 41.1187L9.29424 13.6239ZM13.9495 12.7115L13.9493 12.7113L13.7725 12.8881L13.9495 12.7115ZM13.9495 12.7115L20.5198 19.2818M20.5198 19.2818L24.0816 15.7201M20.5198 19.2818L20.6966 19.4586M20.6966 19.4586L24.2583 15.8968L24.0816 15.7201M20.6966 19.4586L24.6119 11.8541L24.4351 11.6773M20.6966 19.4586L34.1431 1.96947M24.0816 15.7201L24.2583 15.5433L23.5128 14.7977L21.6682 12.9531C21.1588 12.4437 21.1588 11.6179 21.6682 11.1085C22.1775 10.5991 23.0034 10.5991 23.5128 11.1085L24.2584 11.8541L24.4351 11.6773M24.0816 15.7201L23.336 14.9745L21.4914 13.1299C20.8844 12.5229 20.8844 11.5387 21.4914 10.9317C22.0984 10.3247 23.0825 10.3247 23.6896 10.9317L24.4351 11.6773M24.4351 11.6773L34.1431 1.96947M34.1431 1.96947C34.1431 1.96944 34.1431 1.96942 34.1431 1.96939C34.5466 1.56562 35.0187 1.25847 35.5212 1.05495M34.1431 1.96947L35.5212 1.05495M28.9403 32.3921C28.9403 32.3922 28.9403 32.3922 28.9402 32.3922L28.7943 32.1892L28.9403 32.3921ZM28.9403 32.3921C29.326 32.1147 29.6244 31.7524 29.8234 31.3531L29.8234 31.3531C30.0224 30.9538 30.1263 30.5153 30.1265 30.0675V30.0674C30.1266 29.7118 30.0601 29.349 29.9201 29.0025L28.9403 32.3921ZM35.5212 1.05495C35.5212 1.05494 35.5212 1.05494 35.5212 1.05493L35.6151 1.28664L35.5212 1.05495ZM38.2958 4.42156C38.3591 4.57749 38.3912 4.74507 38.3912 4.91304M38.2958 4.42156C38.2322 4.26546 38.1389 4.12078 38.0091 3.99078M38.2958 4.42156L38.0643 4.51588C38.0642 4.51578 38.0642 4.51567 38.0641 4.51556M38.2958 4.42156L38.0641 4.51556M38.3912 4.91304L36.1646 3.99078C36.2946 3.86101 36.4393 3.76773 36.5954 3.70414M38.3912 4.91304C38.3913 5.08116 38.3591 5.24866 38.2959 5.4046M38.3912 4.91304L38.2959 5.4046M38.0091 3.99078C37.8791 3.86101 37.7345 3.76773 37.5784 3.70414M38.0091 3.99078L37.8322 4.16739C37.8323 4.1675 37.8324 4.16761 37.8325 4.16771M38.0091 3.99078L37.8325 4.16771M37.5784 3.70414C37.4224 3.64093 37.255 3.60874 37.0869 3.60874C36.9189 3.60874 36.7513 3.64085 36.5954 3.70414M37.5784 3.70414L37.4841 3.93568M37.5784 3.70414L37.4844 3.93583C37.4843 3.93578 37.4842 3.93573 37.4841 3.93568M36.5954 3.70414L36.6897 3.93566M36.5954 3.70414L36.6897 3.93566M26.6334 13.8755L36.3412 4.16771C36.4471 4.06204 36.5635 3.98712 36.6894 3.93579L26.6334 13.8755ZM26.6334 13.8755L28.1245 15.3666L37.8322 5.65889L26.6334 13.8755ZM36.6897 3.93566C36.8152 3.88479 36.9507 3.85874 37.0869 3.85874C37.2231 3.85874 37.3585 3.88483 37.4841 3.93568M36.6897 3.93566L37.8325 4.16771M37.4841 3.93568C37.6101 3.98699 37.7265 4.06193 37.8325 4.16771M37.8325 4.16771C37.938 4.27349 38.0128 4.38981 38.0641 4.51556M37.8325 4.16771L37.8324 5.65868C37.9381 5.55268 38.013 5.43628 38.0643 5.31039M38.0641 4.51556C38.1151 4.64112 38.1412 4.77673 38.1412 4.91304V4.91327C38.1413 5.04943 38.1152 5.18481 38.0643 5.31039M38.0643 5.31039C38.0643 5.31046 38.0642 5.31053 38.0642 5.3106L38.2959 5.4046M38.0643 5.31039C38.0643 5.31037 38.0643 5.31034 38.0643 5.31032L38.2959 5.4046M28.3773 32.7102L28.3759 32.7057L3.60422 41.25C3.87441 41.2501 4.14942 41.211 4.41706 41.1322L4.41709 41.1322L4.42322 41.1303L4.48783 41.1094L4.48786 41.1095L4.49394 41.1073L28.1506 32.7899L28.3773 32.7102ZM26.8027 29.9673L4.02044 37.9779L12.0327 15.1914L18.3214 21.48L15.9572 23.8443C15.3502 24.4513 15.3502 25.4354 15.9572 26.0424C16.5642 26.6494 17.5483 26.6494 18.1553 26.0424L18.1554 26.0423L20.5165 23.6783L26.8027 29.9673Z" fill="black" stroke="black" stroke-width="0.5"/>
</svg>
