<svg width="563" height="170" viewBox="0 0 563 170" fill="none" xmlns="http://www.w3.org/2000/svg">
<rect x="0.75" y="0.5" width="562" height="168.75" rx="37.5" fill="#A6C3D4"/>
<mask id="mask0_114_241" style="mask-type:alpha" maskUnits="userSpaceOnUse" x="0" y="0" width="563" height="170">
<rect x="0.75" y="0.5" width="562" height="168.75" rx="37.5" fill="#C2D4DD"/>
</mask>
<g mask="url(#mask0_114_241)">
<path d="M27.7716 43V27.25H41.6991V43H38.8191V29.005L39.4941 29.725H29.9766L30.6516 29.005V43H27.7716ZM51.1802 43.1575C49.9502 43.1575 48.8552 42.895 47.8952 42.37C46.9352 41.83 46.1777 41.095 45.6227 40.165C45.0677 39.235 44.7902 38.1775 44.7902 36.9925C44.7902 35.7925 45.0677 34.735 45.6227 33.82C46.1777 32.89 46.9352 32.1625 47.8952 31.6375C48.8552 31.1125 49.9502 30.85 51.1802 30.85C52.4252 30.85 53.5277 31.1125 54.4877 31.6375C55.4627 32.1625 56.2202 32.8825 56.7602 33.7975C57.3152 34.7125 57.5927 35.7775 57.5927 36.9925C57.5927 38.1775 57.3152 39.235 56.7602 40.165C56.2202 41.095 55.4627 41.83 54.4877 42.37C53.5277 42.895 52.4252 43.1575 51.1802 43.1575ZM51.1802 40.75C51.8702 40.75 52.4852 40.6 53.0252 40.3C53.5652 40 53.9852 39.565 54.2852 38.995C54.6002 38.425 54.7577 37.7575 54.7577 36.9925C54.7577 36.2125 54.6002 35.545 54.2852 34.99C53.9852 34.42 53.5652 33.985 53.0252 33.685C52.4852 33.385 51.8777 33.235 51.2027 33.235C50.5127 33.235 49.8977 33.385 49.3577 33.685C48.8327 33.985 48.4127 34.42 48.0977 34.99C47.7827 35.545 47.6252 36.2125 47.6252 36.9925C47.6252 37.7575 47.7827 38.425 48.0977 38.995C48.4127 39.565 48.8327 40 49.3577 40.3C49.8977 40.6 50.5052 40.75 51.1802 40.75ZM68.4743 41.695V33.37H63.8618L63.7943 35.305C63.7643 35.995 63.7193 36.6625 63.6593 37.3075C63.5993 37.9375 63.5018 38.5225 63.3668 39.0625C63.2318 39.5875 63.0368 40.0225 62.7818 40.3675C62.5268 40.7125 62.1893 40.9375 61.7693 41.0425L58.9793 40.615C59.4293 40.615 59.7893 40.4725 60.0593 40.1875C60.3443 39.8875 60.5618 39.4825 60.7118 38.9725C60.8768 38.4475 60.9968 37.855 61.0718 37.195C61.1468 36.52 61.1993 35.8225 61.2293 35.1025L61.3868 30.985H71.2868V41.695H68.4743ZM58.5518 45.6775V40.615H73.0643V45.6775H70.4318V43H61.1618V45.6775H58.5518ZM84.1937 43L79.8512 37.24L82.1462 35.8225L87.5012 43H84.1937ZM75.5762 43V30.985H78.3887V43H75.5762ZM77.5562 38.185V35.845H81.6287V38.185H77.5562ZM82.4162 37.33L79.7837 37.015L84.1937 30.985H87.2087L82.4162 37.33ZM87.7299 42.9775L87.8649 40.615C87.9699 40.63 88.0674 40.645 88.1574 40.66C88.2474 40.675 88.3299 40.6825 88.4049 40.6825C88.8699 40.6825 89.2299 40.54 89.4849 40.255C89.7399 39.97 89.9274 39.5875 90.0474 39.1075C90.1824 38.6125 90.2724 38.065 90.3174 37.465C90.3774 36.85 90.4224 36.235 90.4524 35.62L90.6549 30.985H100.375V43H97.5624V32.605L98.2149 33.37H92.4999L93.1074 32.5825L92.9499 35.755C92.9049 36.82 92.8149 37.81 92.6799 38.725C92.5599 39.625 92.3649 40.4125 92.0949 41.0875C91.8399 41.7625 91.4799 42.2875 91.0149 42.6625C90.5649 43.0375 89.9874 43.225 89.2824 43.225C89.0574 43.225 88.8099 43.2025 88.5399 43.1575C88.2849 43.1125 88.0149 43.0525 87.7299 42.9775ZM104.163 43V30.985H106.975V35.6425H110.553V38.185H106.975V43H104.163ZM115.143 43.1575C113.943 43.1575 112.87 42.895 111.925 42.37C110.995 41.83 110.26 41.095 109.72 40.165C109.18 39.235 108.91 38.1775 108.91 36.9925C108.91 35.7925 109.18 34.7275 109.72 33.7975C110.26 32.8675 110.995 32.1475 111.925 31.6375C112.87 31.1125 113.943 30.85 115.143 30.85C116.358 30.85 117.43 31.1125 118.36 31.6375C119.305 32.1475 120.048 32.8675 120.588 33.7975C121.128 34.7275 121.398 35.7925 121.398 36.9925C121.398 38.1775 121.128 39.2425 120.588 40.1875C120.048 41.1175 119.305 41.845 118.36 42.37C117.43 42.895 116.358 43.1575 115.143 43.1575ZM115.143 40.7725C115.818 40.7725 116.41 40.615 116.92 40.3C117.445 39.985 117.858 39.55 118.158 38.995C118.458 38.44 118.608 37.7725 118.608 36.9925C118.608 36.2125 118.458 35.545 118.158 34.99C117.858 34.42 117.445 33.985 116.92 33.685C116.41 33.385 115.825 33.235 115.165 33.235C114.505 33.235 113.913 33.385 113.388 33.685C112.863 33.985 112.45 34.42 112.15 34.99C111.85 35.545 111.7 36.2125 111.7 36.9925C111.7 37.7725 111.85 38.44 112.15 38.995C112.45 39.55 112.863 39.985 113.388 40.3C113.913 40.615 114.498 40.7725 115.143 40.7725ZM131.74 38.2525C131.17 38.5225 130.563 38.7475 129.918 38.9275C129.288 39.0925 128.62 39.175 127.915 39.175C126.4 39.175 125.223 38.8225 124.383 38.1175C123.543 37.4125 123.123 36.3175 123.123 34.8325V30.985H125.935V34.6525C125.935 35.4475 126.16 36.025 126.61 36.385C127.075 36.745 127.713 36.925 128.523 36.925C129.063 36.925 129.603 36.8575 130.143 36.7225C130.683 36.5875 131.215 36.4 131.74 36.16V38.2525ZM131.538 43V30.985H134.35V43H131.538ZM143.735 43.1575C142.4 43.1575 141.23 42.895 140.225 42.37C139.235 41.83 138.462 41.095 137.907 40.165C137.367 39.235 137.097 38.1775 137.097 36.9925C137.097 35.7925 137.36 34.735 137.885 33.82C138.425 32.89 139.16 32.1625 140.09 31.6375C141.035 31.1125 142.107 30.85 143.307 30.85C144.477 30.85 145.52 31.105 146.435 31.615C147.35 32.125 148.07 32.845 148.595 33.775C149.12 34.705 149.382 35.8 149.382 37.06C149.382 37.18 149.375 37.315 149.36 37.465C149.36 37.615 149.352 37.7575 149.337 37.8925H139.325V36.025H147.852L146.75 36.61C146.765 35.92 146.622 35.3125 146.322 34.7875C146.022 34.2625 145.61 33.85 145.085 33.55C144.575 33.25 143.982 33.1 143.307 33.1C142.617 33.1 142.01 33.25 141.485 33.55C140.975 33.85 140.57 34.27 140.27 34.81C139.985 35.335 139.842 35.9575 139.842 36.6775V37.1275C139.842 37.8475 140.007 38.485 140.337 39.04C140.667 39.595 141.132 40.0225 141.732 40.3225C142.332 40.6225 143.022 40.7725 143.802 40.7725C144.477 40.7725 145.085 40.6675 145.625 40.4575C146.165 40.2475 146.645 39.9175 147.065 39.4675L148.572 41.2C148.032 41.83 147.35 42.3175 146.525 42.6625C145.715 42.9925 144.785 43.1575 143.735 43.1575ZM152.459 43V30.985H155.271V35.8675H161.324V30.985H164.136V43H161.324V38.2525H155.271V43H152.459ZM167.905 43V30.985H170.718V38.905L177.355 30.985H179.92V43H177.108V35.08L170.493 43H167.905ZM189.306 43.1575C187.971 43.1575 186.801 42.895 185.796 42.37C184.806 41.83 184.034 41.095 183.479 40.165C182.939 39.235 182.669 38.1775 182.669 36.9925C182.669 35.7925 182.931 34.735 183.456 33.82C183.996 32.89 184.731 32.1625 185.661 31.6375C186.606 31.1125 187.679 30.85 188.879 30.85C190.049 30.85 191.091 31.105 192.006 31.615C192.921 32.125 193.641 32.845 194.166 33.775C194.691 34.705 194.954 35.8 194.954 37.06C194.954 37.18 194.946 37.315 194.931 37.465C194.931 37.615 194.924 37.7575 194.909 37.8925H184.896V36.025H193.424L192.321 36.61C192.336 35.92 192.194 35.3125 191.894 34.7875C191.594 34.2625 191.181 33.85 190.656 33.55C190.146 33.25 189.554 33.1 188.879 33.1C188.189 33.1 187.581 33.25 187.056 33.55C186.546 33.85 186.141 34.27 185.841 34.81C185.556 35.335 185.414 35.9575 185.414 36.6775V37.1275C185.414 37.8475 185.579 38.485 185.909 39.04C186.239 39.595 186.704 40.0225 187.304 40.3225C187.904 40.6225 188.594 40.7725 189.374 40.7725C190.049 40.7725 190.656 40.6675 191.196 40.4575C191.736 40.2475 192.216 39.9175 192.636 39.4675L194.144 41.2C193.604 41.83 192.921 42.3175 192.096 42.6625C191.286 42.9925 190.356 43.1575 189.306 43.1575ZM212.866 43L208.523 37.24L210.818 35.8225L216.173 43H212.866ZM204.248 43V30.985H207.061V43H204.248ZM206.228 38.185V35.845H210.301V38.185H206.228ZM211.088 37.33L208.456 37.015L212.866 30.985H215.881L211.088 37.33ZM223.116 43.1575C221.886 43.1575 220.791 42.895 219.831 42.37C218.871 41.83 218.114 41.095 217.559 40.165C217.004 39.235 216.726 38.1775 216.726 36.9925C216.726 35.7925 217.004 34.735 217.559 33.82C218.114 32.89 218.871 32.1625 219.831 31.6375C220.791 31.1125 221.886 30.85 223.116 30.85C224.361 30.85 225.464 31.1125 226.424 31.6375C227.399 32.1625 228.156 32.8825 228.696 33.7975C229.251 34.7125 229.529 35.7775 229.529 36.9925C229.529 38.1775 229.251 39.235 228.696 40.165C228.156 41.095 227.399 41.83 226.424 42.37C225.464 42.895 224.361 43.1575 223.116 43.1575ZM223.116 40.75C223.806 40.75 224.421 40.6 224.961 40.3C225.501 40 225.921 39.565 226.221 38.995C226.536 38.425 226.694 37.7575 226.694 36.9925C226.694 36.2125 226.536 35.545 226.221 34.99C225.921 34.42 225.501 33.985 224.961 33.685C224.421 33.385 223.814 33.235 223.139 33.235C222.449 33.235 221.834 33.385 221.294 33.685C220.769 33.985 220.349 34.42 220.034 34.99C219.719 35.545 219.561 36.2125 219.561 36.9925C219.561 37.7575 219.719 38.425 220.034 38.995C220.349 39.565 220.769 40 221.294 40.3C221.834 40.6 222.441 40.75 223.116 40.75ZM232.307 43V30.985H235.255L240.092 39.5125H238.922L244.007 30.985H246.64L246.662 43H244.12V34L244.57 34.2925L240.07 41.74H238.855L234.332 34.09L234.872 33.955V43H232.307ZM250.435 43V30.985H253.382L258.22 39.5125H257.05L262.135 30.985H264.767L264.79 43H262.247V34L262.697 34.2925L258.197 41.74H256.982L252.46 34.09L253 33.955V43H250.435ZM269.642 47.5225C269.057 47.5225 268.472 47.425 267.887 47.23C267.302 47.035 266.815 46.765 266.425 46.42L267.55 44.35C267.835 44.605 268.157 44.8075 268.517 44.9575C268.877 45.1075 269.245 45.1825 269.62 45.1825C270.13 45.1825 270.542 45.055 270.857 44.8C271.172 44.545 271.465 44.1175 271.735 43.5175L272.432 41.9425L272.657 41.605L277.202 30.985H279.902L274.277 43.9675C273.902 44.8675 273.482 45.58 273.017 46.105C272.567 46.63 272.057 46.9975 271.487 47.2075C270.932 47.4175 270.317 47.5225 269.642 47.5225ZM272.117 43.4275L266.695 30.985H269.62L274.03 41.3575L272.117 43.4275ZM281.856 43V30.985H284.668V35.8675H290.721V30.985H293.533V43H290.721V38.2525H284.668V43H281.856ZM297.302 43V30.985H300.115V38.905L306.752 30.985H309.317V43H306.505V35.08L299.89 43H297.302ZM321.718 43L317.376 37.24L319.671 35.8225L325.026 43H321.718ZM313.101 43V30.985H315.913V43H313.101ZM315.081 38.185V35.845H319.153V38.185H315.081ZM319.941 37.33L317.308 37.015L321.718 30.985H324.733L319.941 37.33ZM334.08 43V40.57L333.922 40.0525V35.8C333.922 34.975 333.675 34.3375 333.18 33.8875C332.685 33.4225 331.935 33.19 330.93 33.19C330.255 33.19 329.587 33.295 328.927 33.505C328.282 33.715 327.735 34.0075 327.285 34.3825L326.182 32.335C326.827 31.84 327.592 31.4725 328.477 31.2325C329.377 30.9775 330.307 30.85 331.267 30.85C333.007 30.85 334.35 31.27 335.295 32.11C336.255 32.935 336.735 34.2175 336.735 35.9575V43H334.08ZM330.3 43.1575C329.4 43.1575 328.612 43.0075 327.937 42.7075C327.262 42.3925 326.737 41.965 326.362 41.425C326.002 40.87 325.822 40.2475 325.822 39.5575C325.822 38.8825 325.98 38.275 326.295 37.735C326.625 37.195 327.157 36.7675 327.892 36.4525C328.627 36.1375 329.602 35.98 330.817 35.98H334.305V37.8475H331.02C330.06 37.8475 329.415 38.005 329.085 38.32C328.755 38.62 328.59 38.995 328.59 39.445C328.59 39.955 328.792 40.36 329.197 40.66C329.602 40.96 330.165 41.11 330.885 41.11C331.575 41.11 332.19 40.9525 332.73 40.6375C333.285 40.3225 333.682 39.8575 333.922 39.2425L334.395 40.93C334.125 41.635 333.637 42.1825 332.932 42.5725C332.242 42.9625 331.365 43.1575 330.3 43.1575ZM340.215 43V30.985H343.027V40.615H348.765V30.985H351.577V43H340.215ZM350.767 45.6775V42.9325L351.42 43H348.765V40.615H353.4V45.6775H350.767ZM355.903 43V30.985H358.716V38.905L365.353 30.985H367.918V43H365.106V35.08L358.491 43H355.903ZM371.702 43V30.985H374.514V38.905L381.152 30.985H383.717V43H380.904V35.08L374.289 43H371.702ZM377.529 29.5675C376.329 29.5675 375.407 29.29 374.762 28.735C374.117 28.165 373.787 27.34 373.772 26.26H375.639C375.654 26.8 375.819 27.2275 376.134 27.5425C376.464 27.8575 376.922 28.015 377.507 28.015C378.077 28.015 378.527 27.8575 378.857 27.5425C379.202 27.2275 379.382 26.8 379.397 26.26H381.309C381.294 27.34 380.957 28.165 380.297 28.735C379.652 29.29 378.729 29.5675 377.529 29.5675ZM31.9191 60.09C31.1291 60.09 30.3941 59.96 29.7141 59.7C29.0441 59.43 28.4591 59.055 27.9591 58.575C27.4691 58.085 27.0841 57.52 26.8041 56.88C26.5341 56.23 26.3991 55.52 26.3991 54.75C26.3991 53.98 26.5341 53.275 26.8041 52.635C27.0841 51.985 27.4691 51.42 27.9591 50.94C28.4591 50.45 29.0441 50.075 29.7141 49.815C30.3841 49.545 31.1191 49.41 31.9191 49.41C32.7091 49.41 33.4391 49.545 34.1091 49.815C34.7791 50.075 35.3591 50.445 35.8491 50.925C36.3491 51.405 36.7341 51.97 37.0041 52.62C37.2841 53.27 37.4241 53.98 37.4241 54.75C37.4241 55.52 37.2841 56.23 37.0041 56.88C36.7341 57.53 36.3491 58.095 35.8491 58.575C35.3591 59.055 34.7791 59.43 34.1091 59.7C33.4391 59.96 32.7091 60.09 31.9191 60.09ZM31.9191 59.1C32.5491 59.1 33.1291 58.995 33.6591 58.785C34.1991 58.565 34.6641 58.26 35.0541 57.87C35.4541 57.47 35.7641 57.01 35.9841 56.49C36.2041 55.96 36.3141 55.38 36.3141 54.75C36.3141 54.12 36.2041 53.545 35.9841 53.025C35.7641 52.495 35.4541 52.035 35.0541 51.645C34.6641 51.245 34.1991 50.94 33.6591 50.73C33.1291 50.51 32.5491 50.4 31.9191 50.4C31.2891 50.4 30.7041 50.51 30.1641 50.73C29.6241 50.94 29.1541 51.245 28.7541 51.645C28.3641 52.035 28.0541 52.495 27.8241 53.025C27.6041 53.545 27.4941 54.12 27.4941 54.75C27.4941 55.37 27.6041 55.945 27.8241 56.475C28.0541 57.005 28.3641 57.47 28.7541 57.87C29.1541 58.26 29.6241 58.565 30.1641 58.785C30.7041 58.995 31.2891 59.1 31.9191 59.1ZM43.8829 60.075C43.2029 60.075 42.5879 59.92 42.0379 59.61C41.4879 59.29 41.0479 58.835 40.7179 58.245C40.3979 57.645 40.2379 56.915 40.2379 56.055C40.2379 55.195 40.3979 54.47 40.7179 53.88C41.0379 53.28 41.4729 52.825 42.0229 52.515C42.5729 52.205 43.1929 52.05 43.8829 52.05C44.6329 52.05 45.3029 52.22 45.8929 52.56C46.4929 52.89 46.9629 53.36 47.3029 53.97C47.6429 54.57 47.8129 55.265 47.8129 56.055C47.8129 56.855 47.6429 57.555 47.3029 58.155C46.9629 58.755 46.4929 59.225 45.8929 59.565C45.3029 59.905 44.6329 60.075 43.8829 60.075ZM39.8179 62.91V52.125H40.8379V54.495L40.7329 56.07L40.8829 57.66V62.91H39.8179ZM43.8079 59.13C44.3679 59.13 44.8679 59.005 45.3079 58.755C45.7479 58.495 46.0979 58.135 46.3579 57.675C46.6179 57.205 46.7479 56.665 46.7479 56.055C46.7479 55.445 46.6179 54.91 46.3579 54.45C46.0979 53.99 45.7479 53.63 45.3079 53.37C44.8679 53.11 44.3679 52.98 43.8079 52.98C43.2479 52.98 42.7429 53.11 42.2929 53.37C41.8529 53.63 41.5029 53.99 41.2429 54.45C40.9929 54.91 40.8679 55.445 40.8679 56.055C40.8679 56.665 40.9929 57.205 41.2429 57.675C41.5029 58.135 41.8529 58.495 42.2929 58.755C42.7429 59.005 43.2479 59.13 43.8079 59.13ZM50.1011 60V52.125H55.6811V53.055H50.8961L51.1661 52.785V60H50.1011ZM62.1103 60V58.26L62.0653 57.975V55.065C62.0653 54.395 61.8753 53.88 61.4953 53.52C61.1253 53.16 60.5703 52.98 59.8303 52.98C59.3203 52.98 58.8353 53.065 58.3753 53.235C57.9153 53.405 57.5253 53.63 57.2053 53.91L56.7253 53.115C57.1253 52.775 57.6053 52.515 58.1653 52.335C58.7253 52.145 59.3153 52.05 59.9353 52.05C60.9553 52.05 61.7403 52.305 62.2903 52.815C62.8503 53.315 63.1303 54.08 63.1303 55.11V60H62.1103ZM59.3953 60.075C58.8053 60.075 58.2903 59.98 57.8503 59.79C57.4203 59.59 57.0903 59.32 56.8603 58.98C56.6303 58.63 56.5153 58.23 56.5153 57.78C56.5153 57.37 56.6103 57 56.8003 56.67C57.0003 56.33 57.3203 56.06 57.7603 55.86C58.2103 55.65 58.8103 55.545 59.5603 55.545H62.2753V56.34H59.5903C58.8303 56.34 58.3003 56.475 58.0003 56.745C57.7103 57.015 57.5653 57.35 57.5653 57.75C57.5653 58.2 57.7403 58.56 58.0903 58.83C58.4403 59.1 58.9303 59.235 59.5603 59.235C60.1603 59.235 60.6753 59.1 61.1053 58.83C61.5453 58.55 61.8653 58.15 62.0653 57.63L62.3053 58.365C62.1053 58.885 61.7553 59.3 61.2553 59.61C60.7653 59.92 60.1453 60.075 59.3953 60.075ZM65.9654 60V52.125H67.0304V55.605H71.9954V52.125H73.0604V60H71.9954V56.52H67.0304V60H65.9654ZM76.0874 60V52.125H77.1524V58.38L82.4174 52.125H83.3624V60H82.2974V53.73L77.0474 60H76.0874ZM88.3685 60.09C87.7985 60.09 87.2335 60.01 86.6735 59.85C86.1135 59.69 85.6185 59.445 85.1885 59.115L85.5335 58.32C85.9135 58.6 86.3535 58.815 86.8535 58.965C87.3535 59.105 87.8485 59.175 88.3385 59.175C88.8285 59.165 89.2535 59.095 89.6135 58.965C89.9735 58.835 90.2535 58.655 90.4535 58.425C90.6535 58.195 90.7535 57.935 90.7535 57.645C90.7535 57.225 90.5635 56.9 90.1835 56.67C89.8035 56.43 89.2835 56.31 88.6235 56.31H87.2735V55.53H88.5485C88.9385 55.53 89.2835 55.48 89.5835 55.38C89.8835 55.28 90.1135 55.135 90.2735 54.945C90.4435 54.755 90.5285 54.53 90.5285 54.27C90.5285 53.99 90.4285 53.75 90.2285 53.55C90.0385 53.35 89.7735 53.2 89.4335 53.1C89.0935 53 88.7085 52.95 88.2785 52.95C87.8885 52.96 87.4835 53.02 87.0635 53.13C86.6435 53.23 86.2285 53.385 85.8185 53.595L85.5185 52.77C85.9785 52.53 86.4335 52.35 86.8835 52.23C87.3435 52.1 87.8035 52.035 88.2635 52.035C88.8935 52.015 89.4585 52.09 89.9585 52.26C90.4685 52.43 90.8735 52.675 91.1735 52.995C91.4735 53.305 91.6235 53.68 91.6235 54.12C91.6235 54.51 91.5035 54.85 91.2635 55.14C91.0235 55.43 90.7035 55.655 90.3035 55.815C89.9035 55.975 89.4485 56.055 88.9385 56.055L88.9835 55.77C89.8835 55.77 90.5835 55.945 91.0835 56.295C91.5935 56.645 91.8485 57.12 91.8485 57.72C91.8485 58.19 91.6935 58.605 91.3835 58.965C91.0735 59.315 90.6535 59.59 90.1235 59.79C89.6035 59.99 89.0185 60.09 88.3685 60.09ZM94.4012 62.985C94.0312 62.985 93.6762 62.925 93.3362 62.805C93.0062 62.685 92.7212 62.505 92.4812 62.265L92.9762 61.47C93.1762 61.66 93.3912 61.805 93.6212 61.905C93.8612 62.015 94.1262 62.07 94.4162 62.07C94.7662 62.07 95.0662 61.97 95.3162 61.77C95.5762 61.58 95.8212 61.24 96.0512 60.75L96.5612 59.595L96.6812 59.43L99.9212 52.125H100.971L97.0262 60.945C96.8062 61.455 96.5612 61.86 96.2912 62.16C96.0312 62.46 95.7462 62.67 95.4362 62.79C95.1262 62.92 94.7812 62.985 94.4012 62.985ZM96.5012 60.225L92.8712 52.125H93.9812L97.1912 59.355L96.5012 60.225ZM105.786 60.075C104.966 60.075 104.246 59.905 103.626 59.565C103.006 59.215 102.521 58.74 102.171 58.14C101.821 57.53 101.646 56.835 101.646 56.055C101.646 55.275 101.811 54.585 102.141 53.985C102.481 53.385 102.941 52.915 103.521 52.575C104.111 52.225 104.771 52.05 105.501 52.05C106.241 52.05 106.896 52.22 107.466 52.56C108.046 52.89 108.501 53.36 108.831 53.97C109.161 54.57 109.326 55.265 109.326 56.055C109.326 56.105 109.321 56.16 109.311 56.22C109.311 56.27 109.311 56.325 109.311 56.385H102.456V55.59H108.741L108.321 55.905C108.321 55.335 108.196 54.83 107.946 54.39C107.706 53.94 107.376 53.59 106.956 53.34C106.536 53.09 106.051 52.965 105.501 52.965C104.961 52.965 104.476 53.09 104.046 53.34C103.616 53.59 103.281 53.94 103.041 54.39C102.801 54.84 102.681 55.355 102.681 55.935V56.1C102.681 56.7 102.811 57.23 103.071 57.69C103.341 58.14 103.711 58.495 104.181 58.755C104.661 59.005 105.206 59.13 105.816 59.13C106.296 59.13 106.741 59.045 107.151 58.875C107.571 58.705 107.931 58.445 108.231 58.095L108.831 58.785C108.481 59.205 108.041 59.525 107.511 59.745C106.991 59.965 106.416 60.075 105.786 60.075ZM111.683 60V52.125H112.763L116.333 58.17H115.883L119.513 52.125H120.503V60H119.528V53.34L119.723 53.43L116.333 59.04H115.853L112.433 53.37L112.658 53.325V60H111.683ZM127.46 60V52.125H128.525V58.38L133.79 52.125H134.735V60H133.67V53.73L128.42 60H127.46ZM141.712 60V52.125H145.192C146.082 52.125 146.782 52.295 147.292 52.635C147.812 52.975 148.072 53.475 148.072 54.135C148.072 54.775 147.827 55.27 147.337 55.62C146.847 55.96 146.202 56.13 145.402 56.13L145.612 55.815C146.552 55.815 147.242 55.99 147.682 56.34C148.122 56.69 148.342 57.195 148.342 57.855C148.342 58.535 148.092 59.065 147.592 59.445C147.102 59.815 146.337 60 145.297 60H141.712ZM142.747 59.16H145.252C145.922 59.16 146.427 59.055 146.767 58.845C147.117 58.625 147.292 58.275 147.292 57.795C147.292 57.315 147.137 56.965 146.827 56.745C146.517 56.525 146.027 56.415 145.357 56.415H142.747V59.16ZM142.747 55.62H145.117C145.727 55.62 146.192 55.505 146.512 55.275C146.842 55.045 147.007 54.71 147.007 54.27C147.007 53.83 146.842 53.5 146.512 53.28C146.192 53.06 145.727 52.95 145.117 52.95H142.747V55.62ZM158.518 60V52.125H159.583V60H158.518ZM154.153 54.9C155.143 54.91 155.898 55.13 156.418 55.56C156.938 55.99 157.198 56.61 157.198 57.42C157.198 58.26 156.918 58.905 156.358 59.355C155.798 59.805 154.998 60.025 153.958 60.015L150.838 60V52.125H151.903V54.87L154.153 54.9ZM153.883 59.205C154.623 59.215 155.178 59.07 155.548 58.77C155.928 58.46 156.118 58.01 156.118 57.42C156.118 56.83 155.933 56.4 155.563 56.13C155.193 55.85 154.633 55.705 153.883 55.695L151.903 55.665V59.175L153.883 59.205ZM162.616 60V52.125H169.696V60H168.631V52.77L168.901 53.055H163.411L163.681 52.77V60H162.616ZM175.963 60.075C175.203 60.075 174.518 59.905 173.908 59.565C173.308 59.215 172.833 58.74 172.483 58.14C172.133 57.53 171.958 56.835 171.958 56.055C171.958 55.265 172.133 54.57 172.483 53.97C172.833 53.37 173.308 52.9 173.908 52.56C174.508 52.22 175.193 52.05 175.963 52.05C176.743 52.05 177.433 52.22 178.033 52.56C178.643 52.9 179.118 53.37 179.458 53.97C179.808 54.57 179.983 55.265 179.983 56.055C179.983 56.835 179.808 57.53 179.458 58.14C179.118 58.74 178.643 59.215 178.033 59.565C177.423 59.905 176.733 60.075 175.963 60.075ZM175.963 59.13C176.533 59.13 177.038 59.005 177.478 58.755C177.918 58.495 178.263 58.135 178.513 57.675C178.773 57.205 178.903 56.665 178.903 56.055C178.903 55.435 178.773 54.895 178.513 54.435C178.263 53.975 177.918 53.62 177.478 53.37C177.038 53.11 176.538 52.98 175.978 52.98C175.418 52.98 174.918 53.11 174.478 53.37C174.038 53.62 173.688 53.975 173.428 54.435C173.168 54.895 173.038 55.435 173.038 56.055C173.038 56.665 173.168 57.205 173.428 57.675C173.688 58.135 174.038 58.495 174.478 58.755C174.918 59.005 175.413 59.13 175.963 59.13ZM180.775 59.985L180.85 59.07C180.92 59.08 180.985 59.095 181.045 59.115C181.115 59.125 181.175 59.13 181.225 59.13C181.545 59.13 181.8 59.01 181.99 58.77C182.19 58.53 182.34 58.21 182.44 57.81C182.54 57.41 182.61 56.96 182.65 56.46C182.69 55.95 182.725 55.44 182.755 54.93L182.89 52.125H188.665V60H187.6V52.74L187.87 53.055H183.58L183.835 52.725L183.715 55.005C183.685 55.685 183.63 56.335 183.55 56.955C183.48 57.575 183.365 58.12 183.205 58.59C183.055 59.06 182.845 59.43 182.575 59.7C182.305 59.96 181.96 60.09 181.54 60.09C181.42 60.09 181.295 60.08 181.165 60.06C181.045 60.04 180.915 60.015 180.775 59.985ZM191.693 60V52.125H192.758V55.605H197.723V52.125H198.788V60H197.723V56.52H192.758V60H191.693ZM201.815 60V52.125H202.88V58.38L208.145 52.125H209.09V60H208.025V53.73L202.775 60H201.815ZM212.142 60V52.125H213.222L216.792 58.17H216.342L219.972 52.125H220.962V60H219.987V53.34L220.182 53.43L216.792 59.04H216.312L212.892 53.37L213.117 53.325V60H212.142ZM227.919 60V52.125H234.999V60H233.934V52.77L234.204 53.055H228.714L228.984 52.77V60H227.919ZM241.266 60.075C240.506 60.075 239.821 59.905 239.211 59.565C238.611 59.215 238.136 58.74 237.786 58.14C237.436 57.53 237.261 56.835 237.261 56.055C237.261 55.265 237.436 54.57 237.786 53.97C238.136 53.37 238.611 52.9 239.211 52.56C239.811 52.22 240.496 52.05 241.266 52.05C242.046 52.05 242.736 52.22 243.336 52.56C243.946 52.9 244.421 53.37 244.761 53.97C245.111 54.57 245.286 55.265 245.286 56.055C245.286 56.835 245.111 57.53 244.761 58.14C244.421 58.74 243.946 59.215 243.336 59.565C242.726 59.905 242.036 60.075 241.266 60.075ZM241.266 59.13C241.836 59.13 242.341 59.005 242.781 58.755C243.221 58.495 243.566 58.135 243.816 57.675C244.076 57.205 244.206 56.665 244.206 56.055C244.206 55.435 244.076 54.895 243.816 54.435C243.566 53.975 243.221 53.62 242.781 53.37C242.341 53.11 241.841 52.98 241.281 52.98C240.721 52.98 240.221 53.11 239.781 53.37C239.341 53.62 238.991 53.975 238.731 54.435C238.471 54.895 238.341 55.435 238.341 56.055C238.341 56.665 238.471 57.205 238.731 57.675C238.991 58.135 239.341 58.495 239.781 58.755C240.221 59.005 240.716 59.13 241.266 59.13ZM252.918 59.49V53.055H249.123L249.033 54.81C249.013 55.34 248.978 55.86 248.928 56.37C248.888 56.88 248.813 57.35 248.703 57.78C248.603 58.2 248.458 58.545 248.268 58.815C248.078 59.075 247.833 59.225 247.533 59.265L246.468 59.07C246.778 59.08 247.033 58.97 247.233 58.74C247.433 58.5 247.588 58.175 247.698 57.765C247.808 57.355 247.888 56.89 247.938 56.37C247.988 55.84 248.028 55.3 248.058 54.75L248.163 52.125H253.983V59.49H252.918ZM246.138 61.905V59.07H255.213V61.905H254.208V60H247.143V61.905H246.138ZM263.064 60L259.824 56.1L260.709 55.575L264.324 60H263.064ZM257.289 60V52.125H258.354V60H257.289ZM258.024 56.49V55.575H260.559V56.49H258.024ZM260.799 56.175L259.809 56.025L262.944 52.125H264.099L260.799 56.175ZM264.564 59.985L264.639 59.07C264.709 59.08 264.774 59.095 264.834 59.115C264.904 59.125 264.964 59.13 265.014 59.13C265.334 59.13 265.589 59.01 265.779 58.77C265.979 58.53 266.129 58.21 266.229 57.81C266.329 57.41 266.399 56.96 266.439 56.46C266.479 55.95 266.514 55.44 266.544 54.93L266.679 52.125H272.454V60H271.389V52.74L271.659 53.055H267.369L267.624 52.725L267.504 55.005C267.474 55.685 267.419 56.335 267.339 56.955C267.269 57.575 267.154 58.12 266.994 58.59C266.844 59.06 266.634 59.43 266.364 59.7C266.094 59.96 265.749 60.09 265.329 60.09C265.209 60.09 265.084 60.08 264.954 60.06C264.834 60.04 264.704 60.015 264.564 59.985ZM275.482 60V52.125H276.547V55.515H278.947V56.49H276.547V60H275.482ZM282.262 60.075C281.512 60.075 280.837 59.905 280.237 59.565C279.647 59.215 279.182 58.74 278.842 58.14C278.502 57.53 278.332 56.835 278.332 56.055C278.332 55.265 278.502 54.57 278.842 53.97C279.182 53.37 279.647 52.9 280.237 52.56C280.837 52.22 281.512 52.05 282.262 52.05C283.012 52.05 283.682 52.22 284.272 52.56C284.862 52.9 285.327 53.37 285.667 53.97C286.007 54.57 286.177 55.265 286.177 56.055C286.177 56.835 286.007 57.53 285.667 58.14C285.327 58.74 284.862 59.215 284.272 59.565C283.682 59.905 283.012 60.075 282.262 60.075ZM282.262 59.145C282.812 59.145 283.302 59.015 283.732 58.755C284.162 58.495 284.502 58.135 284.752 57.675C285.002 57.205 285.127 56.665 285.127 56.055C285.127 55.435 285.002 54.895 284.752 54.435C284.502 53.975 284.162 53.62 283.732 53.37C283.302 53.11 282.812 52.98 282.262 52.98C281.722 52.98 281.232 53.11 280.792 53.37C280.362 53.62 280.022 53.975 279.772 54.435C279.522 54.895 279.397 55.435 279.397 56.055C279.397 56.665 279.522 57.205 279.772 57.675C280.022 58.135 280.362 58.495 280.792 58.755C281.232 59.015 281.722 59.145 282.262 59.145ZM293.44 56.67C292.98 56.87 292.515 57.03 292.045 57.15C291.585 57.26 291.125 57.315 290.665 57.315C289.735 57.315 289 57.105 288.46 56.685C287.92 56.255 287.65 55.595 287.65 54.705V52.125H288.7V54.645C288.7 55.245 288.895 55.695 289.285 55.995C289.675 56.295 290.2 56.445 290.86 56.445C291.26 56.445 291.68 56.395 292.12 56.295C292.56 56.185 293.005 56.03 293.455 55.83L293.44 56.67ZM293.35 60V52.125H294.415V60H293.35ZM300.815 60.075C299.995 60.075 299.275 59.905 298.655 59.565C298.035 59.215 297.55 58.74 297.2 58.14C296.85 57.53 296.675 56.835 296.675 56.055C296.675 55.275 296.84 54.585 297.17 53.985C297.51 53.385 297.97 52.915 298.55 52.575C299.14 52.225 299.8 52.05 300.53 52.05C301.27 52.05 301.925 52.22 302.495 52.56C303.075 52.89 303.53 53.36 303.86 53.97C304.19 54.57 304.355 55.265 304.355 56.055C304.355 56.105 304.35 56.16 304.34 56.22C304.34 56.27 304.34 56.325 304.34 56.385H297.485V55.59H303.77L303.35 55.905C303.35 55.335 303.225 54.83 302.975 54.39C302.735 53.94 302.405 53.59 301.985 53.34C301.565 53.09 301.08 52.965 300.53 52.965C299.99 52.965 299.505 53.09 299.075 53.34C298.645 53.59 298.31 53.94 298.07 54.39C297.83 54.84 297.71 55.355 297.71 55.935V56.1C297.71 56.7 297.84 57.23 298.1 57.69C298.37 58.14 298.74 58.495 299.21 58.755C299.69 59.005 300.235 59.13 300.845 59.13C301.325 59.13 301.77 59.045 302.18 58.875C302.6 58.705 302.96 58.445 303.26 58.095L303.86 58.785C303.51 59.205 303.07 59.525 302.54 59.745C302.02 59.965 301.445 60.075 300.815 60.075ZM306.712 60V52.125H307.777V55.605H312.742V52.125H313.807V60H312.742V56.52H307.777V60H306.712ZM316.835 60V52.125H317.9V58.38L323.165 52.125H324.11V60H323.045V53.73L317.795 60H316.835ZM330.537 60.075C329.717 60.075 328.997 59.905 328.377 59.565C327.757 59.215 327.272 58.74 326.922 58.14C326.572 57.53 326.397 56.835 326.397 56.055C326.397 55.275 326.562 54.585 326.892 53.985C327.232 53.385 327.692 52.915 328.272 52.575C328.862 52.225 329.522 52.05 330.252 52.05C330.992 52.05 331.647 52.22 332.217 52.56C332.797 52.89 333.252 53.36 333.582 53.97C333.912 54.57 334.077 55.265 334.077 56.055C334.077 56.105 334.072 56.16 334.062 56.22C334.062 56.27 334.062 56.325 334.062 56.385H327.207V55.59H333.492L333.072 55.905C333.072 55.335 332.947 54.83 332.697 54.39C332.457 53.94 332.127 53.59 331.707 53.34C331.287 53.09 330.802 52.965 330.252 52.965C329.712 52.965 329.227 53.09 328.797 53.34C328.367 53.59 328.032 53.94 327.792 54.39C327.552 54.84 327.432 55.355 327.432 55.935V56.1C327.432 56.7 327.562 57.23 327.822 57.69C328.092 58.14 328.462 58.495 328.932 58.755C329.412 59.005 329.957 59.13 330.567 59.13C331.047 59.13 331.492 59.045 331.902 58.875C332.322 58.705 332.682 58.445 332.982 58.095L333.582 58.785C333.232 59.205 332.792 59.525 332.262 59.745C331.742 59.965 331.167 60.075 330.537 60.075ZM340.36 60V52.125H343.84C344.73 52.125 345.43 52.295 345.94 52.635C346.46 52.975 346.72 53.475 346.72 54.135C346.72 54.775 346.475 55.27 345.985 55.62C345.495 55.96 344.85 56.13 344.05 56.13L344.26 55.815C345.2 55.815 345.89 55.99 346.33 56.34C346.77 56.69 346.99 57.195 346.99 57.855C346.99 58.535 346.74 59.065 346.24 59.445C345.75 59.815 344.985 60 343.945 60H340.36ZM341.395 59.16H343.9C344.57 59.16 345.075 59.055 345.415 58.845C345.765 58.625 345.94 58.275 345.94 57.795C345.94 57.315 345.785 56.965 345.475 56.745C345.165 56.525 344.675 56.415 344.005 56.415H341.395V59.16ZM341.395 55.62H343.765C344.375 55.62 344.84 55.505 345.16 55.275C345.49 55.045 345.655 54.71 345.655 54.27C345.655 53.83 345.49 53.5 345.16 53.28C344.84 53.06 344.375 52.95 343.765 52.95H341.395V55.62ZM352.786 60.075C352.006 60.075 351.306 59.905 350.686 59.565C350.076 59.215 349.596 58.74 349.246 58.14C348.896 57.53 348.721 56.835 348.721 56.055C348.721 55.265 348.896 54.57 349.246 53.97C349.596 53.37 350.076 52.9 350.686 52.56C351.306 52.22 352.006 52.05 352.786 52.05C353.456 52.05 354.061 52.18 354.601 52.44C355.141 52.7 355.566 53.09 355.876 53.61L355.081 54.15C354.811 53.75 354.476 53.455 354.076 53.265C353.676 53.075 353.241 52.98 352.771 52.98C352.211 52.98 351.706 53.11 351.256 53.37C350.806 53.62 350.451 53.975 350.191 54.435C349.931 54.895 349.801 55.435 349.801 56.055C349.801 56.675 349.931 57.215 350.191 57.675C350.451 58.135 350.806 58.495 351.256 58.755C351.706 59.005 352.211 59.13 352.771 59.13C353.241 59.13 353.676 59.035 354.076 58.845C354.476 58.655 354.811 58.365 355.081 57.975L355.876 58.515C355.566 59.025 355.141 59.415 354.601 59.685C354.061 59.945 353.456 60.075 352.786 60.075ZM361.181 60.075C360.361 60.075 359.641 59.905 359.021 59.565C358.401 59.215 357.916 58.74 357.566 58.14C357.216 57.53 357.041 56.835 357.041 56.055C357.041 55.275 357.206 54.585 357.536 53.985C357.876 53.385 358.336 52.915 358.916 52.575C359.506 52.225 360.166 52.05 360.896 52.05C361.636 52.05 362.291 52.22 362.861 52.56C363.441 52.89 363.896 53.36 364.226 53.97C364.556 54.57 364.721 55.265 364.721 56.055C364.721 56.105 364.716 56.16 364.706 56.22C364.706 56.27 364.706 56.325 364.706 56.385H357.851V55.59H364.136L363.716 55.905C363.716 55.335 363.591 54.83 363.341 54.39C363.101 53.94 362.771 53.59 362.351 53.34C361.931 53.09 361.446 52.965 360.896 52.965C360.356 52.965 359.871 53.09 359.441 53.34C359.011 53.59 358.676 53.94 358.436 54.39C358.196 54.84 358.076 55.355 358.076 55.935V56.1C358.076 56.7 358.206 57.23 358.466 57.69C358.736 58.14 359.106 58.495 359.576 58.755C360.056 59.005 360.601 59.13 361.211 59.13C361.691 59.13 362.136 59.045 362.546 58.875C362.966 58.705 363.326 58.445 363.626 58.095L364.226 58.785C363.876 59.205 363.436 59.525 362.906 59.745C362.386 59.965 361.811 60.075 361.181 60.075ZM365.569 60L368.899 55.68L368.884 56.205L365.719 52.125H366.919L369.514 55.5L369.064 55.485L371.659 52.125H372.829L369.634 56.25L369.649 55.68L373.009 60H371.794L369.049 56.4L369.469 56.46L366.769 60H365.569ZM27.0591 77V69.125H28.1241V72.605H33.0891V69.125H34.1541V77H33.0891V73.52H28.1241V77H27.0591ZM40.5562 77.075C39.7362 77.075 39.0162 76.905 38.3962 76.565C37.7762 76.215 37.2912 75.74 36.9412 75.14C36.5912 74.53 36.4162 73.835 36.4162 73.055C36.4162 72.275 36.5812 71.585 36.9112 70.985C37.2512 70.385 37.7112 69.915 38.2912 69.575C38.8812 69.225 39.5412 69.05 40.2712 69.05C41.0112 69.05 41.6662 69.22 42.2362 69.56C42.8162 69.89 43.2712 70.36 43.6012 70.97C43.9312 71.57 44.0962 72.265 44.0962 73.055C44.0962 73.105 44.0912 73.16 44.0812 73.22C44.0812 73.27 44.0812 73.325 44.0812 73.385H37.2262V72.59H43.5112L43.0912 72.905C43.0912 72.335 42.9662 71.83 42.7162 71.39C42.4762 70.94 42.1462 70.59 41.7262 70.34C41.3062 70.09 40.8212 69.965 40.2712 69.965C39.7312 69.965 39.2462 70.09 38.8162 70.34C38.3862 70.59 38.0512 70.94 37.8112 71.39C37.5712 71.84 37.4512 72.355 37.4512 72.935V73.1C37.4512 73.7 37.5812 74.23 37.8412 74.69C38.1112 75.14 38.4812 75.495 38.9512 75.755C39.4312 76.005 39.9762 76.13 40.5862 76.13C41.0662 76.13 41.5112 76.045 41.9212 75.875C42.3412 75.705 42.7012 75.445 43.0012 75.095L43.6012 75.785C43.2512 76.205 42.8112 76.525 42.2812 76.745C41.7612 76.965 41.1862 77.075 40.5562 77.075ZM49.6937 77.075C48.9337 77.075 48.2487 76.905 47.6387 76.565C47.0387 76.215 46.5637 75.74 46.2137 75.14C45.8637 74.53 45.6887 73.835 45.6887 73.055C45.6887 72.265 45.8637 71.57 46.2137 70.97C46.5637 70.37 47.0387 69.9 47.6387 69.56C48.2387 69.22 48.9237 69.05 49.6937 69.05C50.4737 69.05 51.1637 69.22 51.7637 69.56C52.3737 69.9 52.8487 70.37 53.1887 70.97C53.5387 71.57 53.7137 72.265 53.7137 73.055C53.7137 73.835 53.5387 74.53 53.1887 75.14C52.8487 75.74 52.3737 76.215 51.7637 76.565C51.1537 76.905 50.4637 77.075 49.6937 77.075ZM49.6937 76.13C50.2637 76.13 50.7687 76.005 51.2087 75.755C51.6487 75.495 51.9937 75.135 52.2437 74.675C52.5037 74.205 52.6337 73.665 52.6337 73.055C52.6337 72.435 52.5037 71.895 52.2437 71.435C51.9937 70.975 51.6487 70.62 51.2087 70.37C50.7687 70.11 50.2687 69.98 49.7087 69.98C49.1487 69.98 48.6487 70.11 48.2087 70.37C47.7687 70.62 47.4187 70.975 47.1587 71.435C46.8987 71.895 46.7687 72.435 46.7687 73.055C46.7687 73.665 46.8987 74.205 47.1587 74.675C47.4187 75.135 47.7687 75.495 48.2087 75.755C48.6487 76.005 49.1437 76.13 49.6937 76.13ZM59.5298 77.09C58.8898 77.09 58.3198 76.985 57.8198 76.775C57.3298 76.565 56.9098 76.245 56.5598 75.815C56.2098 75.385 55.9448 74.855 55.7648 74.225C55.5848 73.585 55.4948 72.845 55.4948 72.005C55.4948 71.255 55.5648 70.6 55.7048 70.04C55.8448 69.47 56.0398 68.98 56.2898 68.57C56.5398 68.16 56.8298 67.815 57.1598 67.535C57.4998 67.245 57.8648 67.015 58.2548 66.845C58.6548 66.665 59.0648 66.53 59.4848 66.44L63.0248 65.615L63.2048 66.605L59.8748 67.355C59.6648 67.405 59.4098 67.475 59.1098 67.565C58.8198 67.655 58.5198 67.79 58.2098 67.97C57.9098 68.15 57.6298 68.4 57.3698 68.72C57.1098 69.04 56.8998 69.455 56.7398 69.965C56.5898 70.465 56.5148 71.09 56.5148 71.84C56.5148 72 56.5198 72.13 56.5298 72.23C56.5398 72.32 56.5498 72.42 56.5598 72.53C56.5798 72.63 56.5948 72.78 56.6048 72.98L56.1398 72.59C56.2498 71.98 56.4748 71.45 56.8148 71C57.1548 70.54 57.5798 70.185 58.0898 69.935C58.6098 69.675 59.1848 69.545 59.8148 69.545C60.5448 69.545 61.1948 69.705 61.7648 70.025C62.3348 70.335 62.7798 70.77 63.0998 71.33C63.4298 71.89 63.5948 72.54 63.5948 73.28C63.5948 74.01 63.4248 74.665 63.0848 75.245C62.7548 75.825 62.2848 76.28 61.6748 76.61C61.0648 76.93 60.3498 77.09 59.5298 77.09ZM59.6498 76.205C60.2098 76.205 60.7048 76.08 61.1348 75.83C61.5648 75.57 61.8998 75.22 62.1398 74.78C62.3898 74.34 62.5148 73.845 62.5148 73.295C62.5148 72.755 62.3898 72.275 62.1398 71.855C61.8998 71.435 61.5648 71.105 61.1348 70.865C60.7048 70.615 60.2048 70.49 59.6348 70.49C59.0748 70.49 58.5798 70.61 58.1498 70.85C57.7198 71.08 57.3798 71.405 57.1298 71.825C56.8898 72.245 56.7698 72.73 56.7698 73.28C56.7698 73.83 56.8898 74.325 57.1298 74.765C57.3798 75.205 57.7198 75.555 58.1498 75.815C58.5898 76.075 59.0898 76.205 59.6498 76.205ZM64.3092 77L67.6392 72.68L67.6242 73.205L64.4592 69.125H65.6592L68.2542 72.5L67.8042 72.485L70.3992 69.125H71.5692L68.3742 73.25L68.3892 72.68L71.7492 77H70.5342L67.7892 73.4L68.2092 73.46L65.5092 77H64.3092ZM76.4564 77.075C75.6964 77.075 75.0114 76.905 74.4014 76.565C73.8014 76.215 73.3264 75.74 72.9764 75.14C72.6264 74.53 72.4514 73.835 72.4514 73.055C72.4514 72.265 72.6264 71.57 72.9764 70.97C73.3264 70.37 73.8014 69.9 74.4014 69.56C75.0014 69.22 75.6864 69.05 76.4564 69.05C77.2364 69.05 77.9264 69.22 78.5264 69.56C79.1364 69.9 79.6114 70.37 79.9514 70.97C80.3014 71.57 80.4764 72.265 80.4764 73.055C80.4764 73.835 80.3014 74.53 79.9514 75.14C79.6114 75.74 79.1364 76.215 78.5264 76.565C77.9164 76.905 77.2264 77.075 76.4564 77.075ZM76.4564 76.13C77.0264 76.13 77.5314 76.005 77.9714 75.755C78.4114 75.495 78.7564 75.135 79.0064 74.675C79.2664 74.205 79.3964 73.665 79.3964 73.055C79.3964 72.435 79.2664 71.895 79.0064 71.435C78.7564 70.975 78.4114 70.62 77.9714 70.37C77.5314 70.11 77.0314 69.98 76.4714 69.98C75.9114 69.98 75.4114 70.11 74.9714 70.37C74.5314 70.62 74.1814 70.975 73.9214 71.435C73.6614 71.895 73.5314 72.435 73.5314 73.055C73.5314 73.665 73.6614 74.205 73.9214 74.675C74.1814 75.135 74.5314 75.495 74.9714 75.755C75.4114 76.005 75.9064 76.13 76.4564 76.13ZM88.1085 76.49V70.055H84.3135L84.2235 71.81C84.2035 72.34 84.1685 72.86 84.1185 73.37C84.0785 73.88 84.0035 74.35 83.8935 74.78C83.7935 75.2 83.6485 75.545 83.4585 75.815C83.2685 76.075 83.0235 76.225 82.7235 76.265L81.6585 76.07C81.9685 76.08 82.2235 75.97 82.4235 75.74C82.6235 75.5 82.7785 75.175 82.8885 74.765C82.9985 74.355 83.0785 73.89 83.1285 73.37C83.1785 72.84 83.2185 72.3 83.2485 71.75L83.3535 69.125H89.1735V76.49H88.1085ZM81.3285 78.905V76.07H90.4035V78.905H89.3985V77H82.3335V78.905H81.3285ZM92.4791 77V69.125H93.5441V75.38L98.8091 69.125H99.7541V77H98.6891V70.73L93.4391 77H92.4791ZM102.806 77V69.125H103.886L107.456 75.17H107.006L110.636 69.125H111.626V77H110.651V70.34L110.846 70.43L107.456 76.04H106.976L103.556 70.37L103.781 70.325V77H102.806ZM122.337 77V69.125H123.402V77H122.337ZM117.972 71.9C118.962 71.91 119.717 72.13 120.237 72.56C120.757 72.99 121.017 73.61 121.017 74.42C121.017 75.26 120.737 75.905 120.177 76.355C119.617 76.805 118.817 77.025 117.777 77.015L114.657 77V69.125H115.722V71.87L117.972 71.9ZM117.702 76.205C118.442 76.215 118.997 76.07 119.367 75.77C119.747 75.46 119.937 75.01 119.937 74.42C119.937 73.83 119.752 73.4 119.382 73.13C119.012 72.85 118.452 72.705 117.702 72.695L115.722 72.665V76.175L117.702 76.205ZM125.144 77L128.474 72.68L128.459 73.205L125.294 69.125H126.494L129.089 72.5L128.639 72.485L131.234 69.125H132.404L129.209 73.25L129.224 72.68L132.584 77H131.369L128.624 73.4L129.044 73.46L126.344 77H125.144ZM144.03 77L140.79 73.1L141.675 72.575L145.29 77H144.03ZM138.255 77V69.125H139.32V77H138.255ZM138.99 73.49V72.575H141.525V73.49H138.99ZM141.765 73.175L140.775 73.025L143.91 69.125H145.065L141.765 73.175ZM149.933 77.075C149.173 77.075 148.488 76.905 147.878 76.565C147.278 76.215 146.803 75.74 146.453 75.14C146.103 74.53 145.928 73.835 145.928 73.055C145.928 72.265 146.103 71.57 146.453 70.97C146.803 70.37 147.278 69.9 147.878 69.56C148.478 69.22 149.163 69.05 149.933 69.05C150.713 69.05 151.403 69.22 152.003 69.56C152.613 69.9 153.088 70.37 153.428 70.97C153.778 71.57 153.953 72.265 153.953 73.055C153.953 73.835 153.778 74.53 153.428 75.14C153.088 75.74 152.613 76.215 152.003 76.565C151.393 76.905 150.703 77.075 149.933 77.075ZM149.933 76.13C150.503 76.13 151.008 76.005 151.448 75.755C151.888 75.495 152.233 75.135 152.483 74.675C152.743 74.205 152.873 73.665 152.873 73.055C152.873 72.435 152.743 71.895 152.483 71.435C152.233 70.975 151.888 70.62 151.448 70.37C151.008 70.11 150.508 69.98 149.948 69.98C149.388 69.98 148.888 70.11 148.448 70.37C148.008 70.62 147.658 70.975 147.398 71.435C147.138 71.895 147.008 72.435 147.008 73.055C147.008 73.665 147.138 74.205 147.398 74.675C147.658 75.135 148.008 75.495 148.448 75.755C148.888 76.005 149.383 76.13 149.933 76.13ZM156.229 77V69.125H157.309L160.879 75.17H160.429L164.059 69.125H165.049V77H164.074V70.34L164.269 70.43L160.879 76.04H160.399L156.979 70.37L157.204 70.325V77H156.229ZM168.08 77V69.125H169.16L172.73 75.17H172.28L175.91 69.125H176.9V77H175.925V70.34L176.12 70.43L172.73 76.04H172.25L168.83 70.37L169.055 70.325V77H168.08ZM180.065 79.985C179.695 79.985 179.34 79.925 179 79.805C178.67 79.685 178.385 79.505 178.145 79.265L178.64 78.47C178.84 78.66 179.055 78.805 179.285 78.905C179.525 79.015 179.79 79.07 180.08 79.07C180.43 79.07 180.73 78.97 180.98 78.77C181.24 78.58 181.485 78.24 181.715 77.75L182.225 76.595L182.345 76.43L185.585 69.125H186.635L182.69 77.945C182.47 78.455 182.225 78.86 181.955 79.16C181.695 79.46 181.41 79.67 181.1 79.79C180.79 79.92 180.445 79.985 180.065 79.985ZM182.165 77.225L178.535 69.125H179.645L182.855 76.355L182.165 77.225ZM188.294 77V69.125H189.359V72.605H194.324V69.125H195.389V77H194.324V73.52H189.359V77H188.294ZM198.417 77V69.125H199.482V75.38L204.747 69.125H205.692V77H204.627V70.73L199.377 77H198.417ZM214.519 77L211.279 73.1L212.164 72.575L215.779 77H214.519ZM208.744 77V69.125H209.809V77H208.744ZM209.479 73.49V72.575H212.014V73.49H209.479ZM212.254 73.175L211.264 73.025L214.399 69.125H215.554L212.254 73.175ZM222.203 77V75.26L222.158 74.975V72.065C222.158 71.395 221.968 70.88 221.588 70.52C221.218 70.16 220.663 69.98 219.923 69.98C219.413 69.98 218.928 70.065 218.468 70.235C218.008 70.405 217.618 70.63 217.298 70.91L216.818 70.115C217.218 69.775 217.698 69.515 218.258 69.335C218.818 69.145 219.408 69.05 220.028 69.05C221.048 69.05 221.833 69.305 222.383 69.815C222.943 70.315 223.223 71.08 223.223 72.11V77H222.203ZM219.488 77.075C218.898 77.075 218.383 76.98 217.943 76.79C217.513 76.59 217.183 76.32 216.953 75.98C216.723 75.63 216.608 75.23 216.608 74.78C216.608 74.37 216.703 74 216.893 73.67C217.093 73.33 217.413 73.06 217.853 72.86C218.303 72.65 218.903 72.545 219.653 72.545H222.368V73.34H219.683C218.923 73.34 218.393 73.475 218.093 73.745C217.803 74.015 217.658 74.35 217.658 74.75C217.658 75.2 217.833 75.56 218.183 75.83C218.533 76.1 219.023 76.235 219.653 76.235C220.253 76.235 220.768 76.1 221.198 75.83C221.638 75.55 221.958 75.15 222.158 74.63L222.398 75.365C222.198 75.885 221.848 76.3 221.348 76.61C220.858 76.92 220.238 77.075 219.488 77.075ZM226.058 77V69.125H227.123V76.07H231.938V69.125H233.003V77H226.058ZM233.273 78.905V76.91L233.543 77H231.938V76.07H234.278V78.905H233.273ZM236.312 77V69.125H237.377V75.38L242.642 69.125H243.587V77H242.522V70.73L237.272 77H236.312ZM246.639 77V69.125H247.704V75.38L252.969 69.125H253.914V77H252.849V70.73L247.599 77H246.639ZM250.209 67.985C249.549 67.985 249.014 67.82 248.604 67.49C248.204 67.15 247.994 66.665 247.974 66.035H248.739C248.749 66.435 248.889 66.75 249.159 66.98C249.429 67.21 249.779 67.325 250.209 67.325C250.639 67.325 250.989 67.21 251.259 66.98C251.539 66.75 251.684 66.435 251.694 66.035H252.459C252.449 66.665 252.239 67.15 251.829 67.49C251.419 67.82 250.879 67.985 250.209 67.985ZM259.377 73.31V72.545H274.377V73.31H259.377ZM279.818 77V69.125H285.398V70.055H280.613L280.883 69.785V77H279.818ZM291.827 77V75.26L291.782 74.975V72.065C291.782 71.395 291.592 70.88 291.212 70.52C290.842 70.16 290.287 69.98 289.547 69.98C289.037 69.98 288.552 70.065 288.092 70.235C287.632 70.405 287.242 70.63 286.922 70.91L286.442 70.115C286.842 69.775 287.322 69.515 287.882 69.335C288.442 69.145 289.032 69.05 289.652 69.05C290.672 69.05 291.457 69.305 292.007 69.815C292.567 70.315 292.847 71.08 292.847 72.11V77H291.827ZM289.112 77.075C288.522 77.075 288.007 76.98 287.567 76.79C287.137 76.59 286.807 76.32 286.577 75.98C286.347 75.63 286.232 75.23 286.232 74.78C286.232 74.37 286.327 74 286.517 73.67C286.717 73.33 287.037 73.06 287.477 72.86C287.927 72.65 288.527 72.545 289.277 72.545H291.992V73.34H289.307C288.547 73.34 288.017 73.475 287.717 73.745C287.427 74.015 287.282 74.35 287.282 74.75C287.282 75.2 287.457 75.56 287.807 75.83C288.157 76.1 288.647 76.235 289.277 76.235C289.877 76.235 290.392 76.1 290.822 75.83C291.262 75.55 291.582 75.15 291.782 74.63L292.022 75.365C291.822 75.885 291.472 76.3 290.972 76.61C290.482 76.92 289.862 77.075 289.112 77.075ZM297.636 77.09C297.066 77.09 296.501 77.01 295.941 76.85C295.381 76.69 294.886 76.445 294.456 76.115L294.801 75.32C295.181 75.6 295.621 75.815 296.121 75.965C296.621 76.105 297.116 76.175 297.606 76.175C298.096 76.165 298.521 76.095 298.881 75.965C299.241 75.835 299.521 75.655 299.721 75.425C299.921 75.195 300.021 74.935 300.021 74.645C300.021 74.225 299.831 73.9 299.451 73.67C299.071 73.43 298.551 73.31 297.891 73.31H296.541V72.53H297.816C298.206 72.53 298.551 72.48 298.851 72.38C299.151 72.28 299.381 72.135 299.541 71.945C299.711 71.755 299.796 71.53 299.796 71.27C299.796 70.99 299.696 70.75 299.496 70.55C299.306 70.35 299.041 70.2 298.701 70.1C298.361 70 297.976 69.95 297.546 69.95C297.156 69.96 296.751 70.02 296.331 70.13C295.911 70.23 295.496 70.385 295.086 70.595L294.786 69.77C295.246 69.53 295.701 69.35 296.151 69.23C296.611 69.1 297.071 69.035 297.531 69.035C298.161 69.015 298.726 69.09 299.226 69.26C299.736 69.43 300.141 69.675 300.441 69.995C300.741 70.305 300.891 70.68 300.891 71.12C300.891 71.51 300.771 71.85 300.531 72.14C300.291 72.43 299.971 72.655 299.571 72.815C299.171 72.975 298.716 73.055 298.206 73.055L298.251 72.77C299.151 72.77 299.851 72.945 300.351 73.295C300.861 73.645 301.116 74.12 301.116 74.72C301.116 75.19 300.961 75.605 300.651 75.965C300.341 76.315 299.921 76.59 299.391 76.79C298.871 76.99 298.286 77.09 297.636 77.09ZM308.424 77V75.26L308.379 74.975V72.065C308.379 71.395 308.189 70.88 307.809 70.52C307.439 70.16 306.884 69.98 306.144 69.98C305.634 69.98 305.149 70.065 304.689 70.235C304.229 70.405 303.839 70.63 303.519 70.91L303.039 70.115C303.439 69.775 303.919 69.515 304.479 69.335C305.039 69.145 305.629 69.05 306.249 69.05C307.269 69.05 308.054 69.305 308.604 69.815C309.164 70.315 309.444 71.08 309.444 72.11V77H308.424ZM305.709 77.075C305.119 77.075 304.604 76.98 304.164 76.79C303.734 76.59 303.404 76.32 303.174 75.98C302.944 75.63 302.829 75.23 302.829 74.78C302.829 74.37 302.924 74 303.114 73.67C303.314 73.33 303.634 73.06 304.074 72.86C304.524 72.65 305.124 72.545 305.874 72.545H308.589V73.34H305.904C305.144 73.34 304.614 73.475 304.314 73.745C304.024 74.015 303.879 74.35 303.879 74.75C303.879 75.2 304.054 75.56 304.404 75.83C304.754 76.1 305.244 76.235 305.874 76.235C306.474 76.235 306.989 76.1 307.419 75.83C307.859 75.55 308.179 75.15 308.379 74.63L308.619 75.365C308.419 75.885 308.069 76.3 307.569 76.61C307.079 76.92 306.459 77.075 305.709 77.075ZM311.604 79.19L312.264 76.415L312.384 77.06C312.154 77.06 311.959 76.985 311.799 76.835C311.649 76.685 311.574 76.49 311.574 76.25C311.574 76.01 311.649 75.815 311.799 75.665C311.959 75.515 312.149 75.44 312.369 75.44C312.599 75.44 312.784 75.52 312.924 75.68C313.074 75.84 313.149 76.03 313.149 76.25C313.149 76.33 313.144 76.41 313.134 76.49C313.124 76.57 313.104 76.66 313.074 76.76C313.044 76.86 313.004 76.98 312.954 77.12L312.324 79.19H311.604ZM28.1541 90.4V89.59H32.7291V90.4H28.1541ZM29.2041 86.05C30.0041 86.05 30.7191 86.225 31.3491 86.575C31.9791 86.915 32.4741 87.39 32.8341 88C33.2041 88.6 33.3891 89.285 33.3891 90.055C33.3891 90.825 33.2041 91.515 32.8341 92.125C32.4741 92.735 31.9791 93.215 31.3491 93.565C30.7191 93.915 30.0041 94.09 29.2041 94.09C28.5541 94.09 27.9491 93.99 27.3891 93.79C26.8391 93.58 26.3741 93.28 25.9941 92.89L26.6241 92.26C26.9641 92.58 27.3491 92.82 27.7791 92.98C28.2091 93.13 28.6691 93.205 29.1591 93.205C29.7791 93.205 30.3291 93.07 30.8091 92.8C31.2991 92.52 31.6841 92.145 31.9641 91.675C32.2441 91.195 32.3841 90.655 32.3841 90.055C32.3841 89.455 32.2441 88.92 31.9641 88.45C31.6841 87.97 31.2991 87.595 30.8091 87.325C30.3291 87.055 29.7791 86.92 29.1591 86.92C28.6691 86.92 28.2091 87 27.7791 87.16C27.3491 87.31 26.9641 87.545 26.6241 87.865L25.9941 87.25C26.3741 86.85 26.8391 86.55 27.3891 86.35C27.9491 86.15 28.5541 86.05 29.2041 86.05ZM34.1445 93.985L34.2195 93.07C34.2895 93.08 34.3545 93.095 34.4145 93.115C34.4845 93.125 34.5445 93.13 34.5945 93.13C34.9145 93.13 35.1695 93.01 35.3595 92.77C35.5595 92.53 35.7095 92.21 35.8095 91.81C35.9095 91.41 35.9795 90.96 36.0195 90.46C36.0595 89.95 36.0945 89.44 36.1245 88.93L36.2595 86.125H42.0345V94H40.9695V86.74L41.2395 87.055H36.9495L37.2045 86.725L37.0845 89.005C37.0545 89.685 36.9995 90.335 36.9195 90.955C36.8495 91.575 36.7345 92.12 36.5745 92.59C36.4245 93.06 36.2145 93.43 35.9445 93.7C35.6745 93.96 35.3295 94.09 34.9095 94.09C34.7895 94.09 34.6645 94.08 34.5345 94.06C34.4145 94.04 34.2845 94.015 34.1445 93.985ZM48.4371 94.075C47.6171 94.075 46.8971 93.905 46.2771 93.565C45.6571 93.215 45.1721 92.74 44.8221 92.14C44.4721 91.53 44.2971 90.835 44.2971 90.055C44.2971 89.275 44.4621 88.585 44.7921 87.985C45.1321 87.385 45.5921 86.915 46.1721 86.575C46.7621 86.225 47.4221 86.05 48.1521 86.05C48.8921 86.05 49.5471 86.22 50.1171 86.56C50.6971 86.89 51.1521 87.36 51.4821 87.97C51.8121 88.57 51.9771 89.265 51.9771 90.055C51.9771 90.105 51.9721 90.16 51.9621 90.22C51.9621 90.27 51.9621 90.325 51.9621 90.385H45.1071V89.59H51.3921L50.9721 89.905C50.9721 89.335 50.8471 88.83 50.5971 88.39C50.3571 87.94 50.0271 87.59 49.6071 87.34C49.1871 87.09 48.7021 86.965 48.1521 86.965C47.6121 86.965 47.1271 87.09 46.6971 87.34C46.2671 87.59 45.9321 87.94 45.6921 88.39C45.4521 88.84 45.3321 89.355 45.3321 89.935V90.1C45.3321 90.7 45.4621 91.23 45.7221 91.69C45.9921 92.14 46.3621 92.495 46.8321 92.755C47.3121 93.005 47.8571 93.13 48.4671 93.13C48.9471 93.13 49.3921 93.045 49.8021 92.875C50.2221 92.705 50.5821 92.445 50.8821 92.095L51.4821 92.785C51.1321 93.205 50.6921 93.525 50.1621 93.745C49.6421 93.965 49.0671 94.075 48.4371 94.075ZM60.1095 94L56.8695 90.1L57.7545 89.575L61.3695 94H60.1095ZM54.3345 94V86.125H55.3995V94H54.3345ZM55.0695 90.49V89.575H57.6045V90.49H55.0695ZM57.8445 90.175L56.8545 90.025L59.9895 86.125H61.1445L57.8445 90.175ZM64.3892 94V86.77L64.6592 87.055H61.4042V86.125H68.4392V87.055H65.1842L65.4542 86.77V94H64.3892ZM74.0441 94.075C73.3641 94.075 72.7491 93.92 72.1991 93.61C71.6491 93.29 71.2091 92.835 70.8791 92.245C70.5591 91.645 70.3991 90.915 70.3991 90.055C70.3991 89.195 70.5591 88.47 70.8791 87.88C71.1991 87.28 71.6341 86.825 72.1841 86.515C72.7341 86.205 73.3541 86.05 74.0441 86.05C74.7941 86.05 75.4641 86.22 76.0541 86.56C76.6541 86.89 77.1241 87.36 77.4641 87.97C77.8041 88.57 77.9741 89.265 77.9741 90.055C77.9741 90.855 77.8041 91.555 77.4641 92.155C77.1241 92.755 76.6541 93.225 76.0541 93.565C75.4641 93.905 74.7941 94.075 74.0441 94.075ZM69.9791 96.91V86.125H70.9991V88.495L70.8941 90.07L71.0441 91.66V96.91H69.9791ZM73.9691 93.13C74.5291 93.13 75.0291 93.005 75.4691 92.755C75.9091 92.495 76.2591 92.135 76.5191 91.675C76.7791 91.205 76.9091 90.665 76.9091 90.055C76.9091 89.445 76.7791 88.91 76.5191 88.45C76.2591 87.99 75.9091 87.63 75.4691 87.37C75.0291 87.11 74.5291 86.98 73.9691 86.98C73.4091 86.98 72.9041 87.11 72.4541 87.37C72.0141 87.63 71.6641 87.99 71.4041 88.45C71.1541 88.91 71.0291 89.445 71.0291 90.055C71.0291 90.665 71.1541 91.205 71.4041 91.675C71.6641 92.135 72.0141 92.495 72.4541 92.755C72.9041 93.005 73.4091 93.13 73.9691 93.13ZM80.2623 94V86.125H81.3273V92.38L86.5923 86.125H87.5373V94H86.4723V87.73L81.2223 94H80.2623ZM95.5694 90.67C95.1094 90.87 94.6444 91.03 94.1744 91.15C93.7144 91.26 93.2544 91.315 92.7944 91.315C91.8644 91.315 91.1294 91.105 90.5894 90.685C90.0494 90.255 89.7794 89.595 89.7794 88.705V86.125H90.8294V88.645C90.8294 89.245 91.0244 89.695 91.4144 89.995C91.8044 90.295 92.3294 90.445 92.9894 90.445C93.3894 90.445 93.8094 90.395 94.2494 90.295C94.6894 90.185 95.1344 90.03 95.5844 89.83L95.5694 90.67ZM95.4794 94V86.125H96.5444V94H95.4794ZM102.944 94.075C102.124 94.075 101.404 93.905 100.784 93.565C100.164 93.215 99.6789 92.74 99.3289 92.14C98.9789 91.53 98.8039 90.835 98.8039 90.055C98.8039 89.275 98.9689 88.585 99.2989 87.985C99.6389 87.385 100.099 86.915 100.679 86.575C101.269 86.225 101.929 86.05 102.659 86.05C103.399 86.05 104.054 86.22 104.624 86.56C105.204 86.89 105.659 87.36 105.989 87.97C106.319 88.57 106.484 89.265 106.484 90.055C106.484 90.105 106.479 90.16 106.469 90.22C106.469 90.27 106.469 90.325 106.469 90.385H99.6139V89.59H105.899L105.479 89.905C105.479 89.335 105.354 88.83 105.104 88.39C104.864 87.94 104.534 87.59 104.114 87.34C103.694 87.09 103.209 86.965 102.659 86.965C102.119 86.965 101.634 87.09 101.204 87.34C100.774 87.59 100.439 87.94 100.199 88.39C99.9589 88.84 99.8389 89.355 99.8389 89.935V90.1C99.8389 90.7 99.9689 91.23 100.229 91.69C100.499 92.14 100.869 92.495 101.339 92.755C101.819 93.005 102.364 93.13 102.974 93.13C103.454 93.13 103.899 93.045 104.309 92.875C104.729 92.705 105.089 92.445 105.389 92.095L105.989 92.785C105.639 93.205 105.199 93.525 104.669 93.745C104.149 93.965 103.574 94.075 102.944 94.075ZM112.141 94.075C111.361 94.075 110.661 93.905 110.041 93.565C109.431 93.215 108.951 92.74 108.601 92.14C108.251 91.53 108.076 90.835 108.076 90.055C108.076 89.265 108.251 88.57 108.601 87.97C108.951 87.37 109.431 86.9 110.041 86.56C110.661 86.22 111.361 86.05 112.141 86.05C112.811 86.05 113.416 86.18 113.956 86.44C114.496 86.7 114.921 87.09 115.231 87.61L114.436 88.15C114.166 87.75 113.831 87.455 113.431 87.265C113.031 87.075 112.596 86.98 112.126 86.98C111.566 86.98 111.061 87.11 110.611 87.37C110.161 87.62 109.806 87.975 109.546 88.435C109.286 88.895 109.156 89.435 109.156 90.055C109.156 90.675 109.286 91.215 109.546 91.675C109.806 92.135 110.161 92.495 110.611 92.755C111.061 93.005 111.566 93.13 112.126 93.13C112.596 93.13 113.031 93.035 113.431 92.845C113.831 92.655 114.166 92.365 114.436 91.975L115.231 92.515C114.921 93.025 114.496 93.415 113.956 93.685C113.416 93.945 112.811 94.075 112.141 94.075ZM118.647 94V86.77L118.917 87.055H115.662V86.125H122.697V87.055H119.442L119.712 86.77V94H118.647ZM124.237 94V86.125H127.717C128.607 86.125 129.307 86.295 129.817 86.635C130.337 86.975 130.597 87.475 130.597 88.135C130.597 88.775 130.352 89.27 129.862 89.62C129.372 89.96 128.727 90.13 127.927 90.13L128.137 89.815C129.077 89.815 129.767 89.99 130.207 90.34C130.647 90.69 130.867 91.195 130.867 91.855C130.867 92.535 130.617 93.065 130.117 93.445C129.627 93.815 128.862 94 127.822 94H124.237ZM125.272 93.16H127.777C128.447 93.16 128.952 93.055 129.292 92.845C129.642 92.625 129.817 92.275 129.817 91.795C129.817 91.315 129.662 90.965 129.352 90.745C129.042 90.525 128.552 90.415 127.882 90.415H125.272V93.16ZM125.272 89.62H127.642C128.252 89.62 128.717 89.505 129.037 89.275C129.367 89.045 129.532 88.71 129.532 88.27C129.532 87.83 129.367 87.5 129.037 87.28C128.717 87.06 128.252 86.95 127.642 86.95H125.272V89.62ZM138.253 94V92.26L138.208 91.975V89.065C138.208 88.395 138.018 87.88 137.638 87.52C137.268 87.16 136.713 86.98 135.973 86.98C135.463 86.98 134.978 87.065 134.518 87.235C134.058 87.405 133.668 87.63 133.348 87.91L132.868 87.115C133.268 86.775 133.748 86.515 134.308 86.335C134.868 86.145 135.458 86.05 136.078 86.05C137.098 86.05 137.883 86.305 138.433 86.815C138.993 87.315 139.273 88.08 139.273 89.11V94H138.253ZM135.538 94.075C134.948 94.075 134.433 93.98 133.993 93.79C133.563 93.59 133.233 93.32 133.003 92.98C132.773 92.63 132.658 92.23 132.658 91.78C132.658 91.37 132.753 91 132.943 90.67C133.143 90.33 133.463 90.06 133.903 89.86C134.353 89.65 134.953 89.545 135.703 89.545H138.418V90.34H135.733C134.973 90.34 134.443 90.475 134.143 90.745C133.853 91.015 133.708 91.35 133.708 91.75C133.708 92.2 133.883 92.56 134.233 92.83C134.583 93.1 135.073 93.235 135.703 93.235C136.303 93.235 136.818 93.1 137.248 92.83C137.688 92.55 138.008 92.15 138.208 91.63L138.448 92.365C138.248 92.885 137.898 93.3 137.398 93.61C136.908 93.92 136.288 94.075 135.538 94.075ZM141.433 96.19L142.093 93.415L142.213 94.06C141.983 94.06 141.788 93.985 141.628 93.835C141.478 93.685 141.403 93.49 141.403 93.25C141.403 93.01 141.478 92.815 141.628 92.665C141.788 92.515 141.978 92.44 142.198 92.44C142.428 92.44 142.613 92.52 142.753 92.68C142.903 92.84 142.978 93.03 142.978 93.25C142.978 93.33 142.973 93.41 142.963 93.49C142.953 93.57 142.933 93.66 142.903 93.76C142.873 93.86 142.833 93.98 142.783 94.12L142.153 96.19H141.433ZM149.212 94V86.125H152.692C153.582 86.125 154.282 86.295 154.792 86.635C155.312 86.975 155.572 87.475 155.572 88.135C155.572 88.775 155.327 89.27 154.837 89.62C154.347 89.96 153.702 90.13 152.902 90.13L153.112 89.815C154.052 89.815 154.742 89.99 155.182 90.34C155.622 90.69 155.842 91.195 155.842 91.855C155.842 92.535 155.592 93.065 155.092 93.445C154.602 93.815 153.837 94 152.797 94H149.212ZM150.247 93.16H152.752C153.422 93.16 153.927 93.055 154.267 92.845C154.617 92.625 154.792 92.275 154.792 91.795C154.792 91.315 154.637 90.965 154.327 90.745C154.017 90.525 153.527 90.415 152.857 90.415H150.247V93.16ZM150.247 89.62H152.617C153.227 89.62 153.692 89.505 154.012 89.275C154.342 89.045 154.507 88.71 154.507 88.27C154.507 87.83 154.342 87.5 154.012 87.28C153.692 87.06 153.227 86.95 152.617 86.95H150.247V89.62ZM161.578 94.075C160.818 94.075 160.133 93.905 159.523 93.565C158.923 93.215 158.448 92.74 158.098 92.14C157.748 91.53 157.573 90.835 157.573 90.055C157.573 89.265 157.748 88.57 158.098 87.97C158.448 87.37 158.923 86.9 159.523 86.56C160.123 86.22 160.808 86.05 161.578 86.05C162.358 86.05 163.048 86.22 163.648 86.56C164.258 86.9 164.733 87.37 165.073 87.97C165.423 88.57 165.598 89.265 165.598 90.055C165.598 90.835 165.423 91.53 165.073 92.14C164.733 92.74 164.258 93.215 163.648 93.565C163.038 93.905 162.348 94.075 161.578 94.075ZM161.578 93.13C162.148 93.13 162.653 93.005 163.093 92.755C163.533 92.495 163.878 92.135 164.128 91.675C164.388 91.205 164.518 90.665 164.518 90.055C164.518 89.435 164.388 88.895 164.128 88.435C163.878 87.975 163.533 87.62 163.093 87.37C162.653 87.11 162.153 86.98 161.593 86.98C161.033 86.98 160.533 87.11 160.093 87.37C159.653 87.62 159.303 87.975 159.043 88.435C158.783 88.895 158.653 89.435 158.653 90.055C158.653 90.665 158.783 91.205 159.043 91.675C159.303 92.135 159.653 92.495 160.093 92.755C160.533 93.005 161.028 93.13 161.578 93.13ZM173.231 93.49V87.055H169.436L169.346 88.81C169.326 89.34 169.291 89.86 169.241 90.37C169.201 90.88 169.126 91.35 169.016 91.78C168.916 92.2 168.771 92.545 168.581 92.815C168.391 93.075 168.146 93.225 167.846 93.265L166.781 93.07C167.091 93.08 167.346 92.97 167.546 92.74C167.746 92.5 167.901 92.175 168.011 91.765C168.121 91.355 168.201 90.89 168.251 90.37C168.301 89.84 168.341 89.3 168.371 88.75L168.476 86.125H174.296V93.49H173.231ZM166.451 95.905V93.07H175.526V95.905H174.521V94H167.456V95.905H166.451ZM185.281 94V86.125H186.346V94H185.281ZM180.916 88.9C181.906 88.91 182.661 89.13 183.181 89.56C183.701 89.99 183.961 90.61 183.961 91.42C183.961 92.26 183.681 92.905 183.121 93.355C182.561 93.805 181.761 94.025 180.721 94.015L177.601 94V86.125H178.666V88.87L180.916 88.9ZM180.646 93.205C181.386 93.215 181.941 93.07 182.311 92.77C182.691 92.46 182.881 92.01 182.881 91.42C182.881 90.83 182.696 90.4 182.326 90.13C181.956 89.85 181.396 89.705 180.646 89.695L178.666 89.665V93.175L180.646 93.205ZM193.304 94V86.125H194.369V92.38L199.634 86.125H200.579V94H199.514V87.73L194.264 94H193.304ZM213.332 94L210.092 90.1L210.977 89.575L214.592 94H213.332ZM207.557 94V86.125H208.622V94H207.557ZM208.292 90.49V89.575H210.827V90.49H208.292ZM211.067 90.175L210.077 90.025L213.212 86.125H214.367L211.067 90.175ZM221.017 94V92.26L220.972 91.975V89.065C220.972 88.395 220.782 87.88 220.402 87.52C220.032 87.16 219.477 86.98 218.737 86.98C218.227 86.98 217.742 87.065 217.282 87.235C216.822 87.405 216.432 87.63 216.112 87.91L215.632 87.115C216.032 86.775 216.512 86.515 217.072 86.335C217.632 86.145 218.222 86.05 218.842 86.05C219.862 86.05 220.647 86.305 221.197 86.815C221.757 87.315 222.037 88.08 222.037 89.11V94H221.017ZM218.302 94.075C217.712 94.075 217.197 93.98 216.757 93.79C216.327 93.59 215.997 93.32 215.767 92.98C215.537 92.63 215.422 92.23 215.422 91.78C215.422 91.37 215.517 91 215.707 90.67C215.907 90.33 216.227 90.06 216.667 89.86C217.117 89.65 217.717 89.545 218.467 89.545H221.182V90.34H218.497C217.737 90.34 217.207 90.475 216.907 90.745C216.617 91.015 216.472 91.35 216.472 91.75C216.472 92.2 216.647 92.56 216.997 92.83C217.347 93.1 217.837 93.235 218.467 93.235C219.067 93.235 219.582 93.1 220.012 92.83C220.452 92.55 220.772 92.15 220.972 91.63L221.212 92.365C221.012 92.885 220.662 93.3 220.162 93.61C219.672 93.92 219.052 94.075 218.302 94.075ZM224.872 94V86.125H225.937V89.605H230.902V86.125H231.967V94H230.902V90.52H225.937V94H224.872ZM239.884 94V92.26L239.839 91.975V89.065C239.839 88.395 239.649 87.88 239.269 87.52C238.899 87.16 238.344 86.98 237.604 86.98C237.094 86.98 236.609 87.065 236.149 87.235C235.689 87.405 235.299 87.63 234.979 87.91L234.499 87.115C234.899 86.775 235.379 86.515 235.939 86.335C236.499 86.145 237.089 86.05 237.709 86.05C238.729 86.05 239.514 86.305 240.064 86.815C240.624 87.315 240.904 88.08 240.904 89.11V94H239.884ZM237.169 94.075C236.579 94.075 236.064 93.98 235.624 93.79C235.194 93.59 234.864 93.32 234.634 92.98C234.404 92.63 234.289 92.23 234.289 91.78C234.289 91.37 234.384 91 234.574 90.67C234.774 90.33 235.094 90.06 235.534 89.86C235.984 89.65 236.584 89.545 237.334 89.545H240.049V90.34H237.364C236.604 90.34 236.074 90.475 235.774 90.745C235.484 91.015 235.339 91.35 235.339 91.75C235.339 92.2 235.514 92.56 235.864 92.83C236.214 93.1 236.704 93.235 237.334 93.235C237.934 93.235 238.449 93.1 238.879 92.83C239.319 92.55 239.639 92.15 239.839 91.63L240.079 92.365C239.879 92.885 239.529 93.3 239.029 93.61C238.539 93.92 237.919 94.075 237.169 94.075ZM242.299 93.985L242.374 93.07C242.444 93.08 242.509 93.095 242.569 93.115C242.639 93.125 242.699 93.13 242.749 93.13C243.069 93.13 243.324 93.01 243.514 92.77C243.714 92.53 243.864 92.21 243.964 91.81C244.064 91.41 244.134 90.96 244.174 90.46C244.214 89.95 244.249 89.44 244.279 88.93L244.414 86.125H250.189V94H249.124V86.74L249.394 87.055H245.104L245.359 86.725L245.239 89.005C245.209 89.685 245.154 90.335 245.074 90.955C245.004 91.575 244.889 92.12 244.729 92.59C244.579 93.06 244.369 93.43 244.099 93.7C243.829 93.96 243.484 94.09 243.064 94.09C242.944 94.09 242.819 94.08 242.689 94.06C242.569 94.04 242.439 94.015 242.299 93.985ZM253.216 94V86.125H254.281V92.38L259.546 86.125H260.491V94H259.426V87.73L254.176 94H253.216ZM265.497 94.09C264.927 94.09 264.362 94.01 263.802 93.85C263.242 93.69 262.747 93.445 262.317 93.115L262.662 92.32C263.042 92.6 263.482 92.815 263.982 92.965C264.482 93.105 264.977 93.175 265.467 93.175C265.957 93.165 266.382 93.095 266.742 92.965C267.102 92.835 267.382 92.655 267.582 92.425C267.782 92.195 267.882 91.935 267.882 91.645C267.882 91.225 267.692 90.9 267.312 90.67C266.932 90.43 266.412 90.31 265.752 90.31H264.402V89.53H265.677C266.067 89.53 266.412 89.48 266.712 89.38C267.012 89.28 267.242 89.135 267.402 88.945C267.572 88.755 267.657 88.53 267.657 88.27C267.657 87.99 267.557 87.75 267.357 87.55C267.167 87.35 266.902 87.2 266.562 87.1C266.222 87 265.837 86.95 265.407 86.95C265.017 86.96 264.612 87.02 264.192 87.13C263.772 87.23 263.357 87.385 262.947 87.595L262.647 86.77C263.107 86.53 263.562 86.35 264.012 86.23C264.472 86.1 264.932 86.035 265.392 86.035C266.022 86.015 266.587 86.09 267.087 86.26C267.597 86.43 268.002 86.675 268.302 86.995C268.602 87.305 268.752 87.68 268.752 88.12C268.752 88.51 268.632 88.85 268.392 89.14C268.152 89.43 267.832 89.655 267.432 89.815C267.032 89.975 266.577 90.055 266.067 90.055L266.112 89.77C267.012 89.77 267.712 89.945 268.212 90.295C268.722 90.645 268.977 91.12 268.977 91.72C268.977 92.19 268.822 92.605 268.512 92.965C268.202 93.315 267.782 93.59 267.252 93.79C266.732 93.99 266.147 94.09 265.497 94.09ZM276.285 94V92.26L276.24 91.975V89.065C276.24 88.395 276.05 87.88 275.67 87.52C275.3 87.16 274.745 86.98 274.005 86.98C273.495 86.98 273.01 87.065 272.55 87.235C272.09 87.405 271.7 87.63 271.38 87.91L270.9 87.115C271.3 86.775 271.78 86.515 272.34 86.335C272.9 86.145 273.49 86.05 274.11 86.05C275.13 86.05 275.915 86.305 276.465 86.815C277.025 87.315 277.305 88.08 277.305 89.11V94H276.285ZM273.57 94.075C272.98 94.075 272.465 93.98 272.025 93.79C271.595 93.59 271.265 93.32 271.035 92.98C270.805 92.63 270.69 92.23 270.69 91.78C270.69 91.37 270.785 91 270.975 90.67C271.175 90.33 271.495 90.06 271.935 89.86C272.385 89.65 272.985 89.545 273.735 89.545H276.45V90.34H273.765C273.005 90.34 272.475 90.475 272.175 90.745C271.885 91.015 271.74 91.35 271.74 91.75C271.74 92.2 271.915 92.56 272.265 92.83C272.615 93.1 273.105 93.235 273.735 93.235C274.335 93.235 274.85 93.1 275.28 92.83C275.72 92.55 276.04 92.15 276.24 91.63L276.48 92.365C276.28 92.885 275.93 93.3 275.43 93.61C274.94 93.92 274.32 94.075 273.57 94.075ZM280.14 94V86.125H281.205V93.07H286.02V86.125H287.085V94H280.14ZM287.355 95.905V93.91L287.625 94H286.02V93.07H288.36V95.905H287.355ZM290.394 94V86.125H291.459V92.38L296.724 86.125H297.669V94H296.604V87.73L291.354 94H290.394ZM300.721 94V86.125H301.786V92.38L307.051 86.125H307.996V94H306.931V87.73L301.681 94H300.721ZM310.373 96.19L311.033 93.415L311.153 94.06C310.923 94.06 310.728 93.985 310.568 93.835C310.418 93.685 310.343 93.49 310.343 93.25C310.343 93.01 310.418 92.815 310.568 92.665C310.728 92.515 310.918 92.44 311.138 92.44C311.368 92.44 311.553 92.52 311.693 92.68C311.843 92.84 311.918 93.03 311.918 93.25C311.918 93.33 311.913 93.41 311.903 93.49C311.893 93.57 311.873 93.66 311.843 93.76C311.813 93.86 311.773 93.98 311.723 94.12L311.093 96.19H310.373ZM321.393 94.075C320.633 94.075 319.948 93.905 319.338 93.565C318.738 93.215 318.263 92.74 317.913 92.14C317.563 91.53 317.388 90.835 317.388 90.055C317.388 89.265 317.563 88.57 317.913 87.97C318.263 87.37 318.738 86.9 319.338 86.56C319.938 86.22 320.623 86.05 321.393 86.05C322.173 86.05 322.863 86.22 323.463 86.56C324.073 86.9 324.548 87.37 324.888 87.97C325.238 88.57 325.413 89.265 325.413 90.055C325.413 90.835 325.238 91.53 324.888 92.14C324.548 92.74 324.073 93.215 323.463 93.565C322.853 93.905 322.163 94.075 321.393 94.075ZM321.393 93.13C321.963 93.13 322.468 93.005 322.908 92.755C323.348 92.495 323.693 92.135 323.943 91.675C324.203 91.205 324.333 90.665 324.333 90.055C324.333 89.435 324.203 88.895 323.943 88.435C323.693 87.975 323.348 87.62 322.908 87.37C322.468 87.11 321.968 86.98 321.408 86.98C320.848 86.98 320.348 87.11 319.908 87.37C319.468 87.62 319.118 87.975 318.858 88.435C318.598 88.895 318.468 89.435 318.468 90.055C318.468 90.665 318.598 91.205 318.858 91.675C319.118 92.135 319.468 92.495 319.908 92.755C320.348 93.005 320.843 93.13 321.393 93.13ZM331.229 94.09C330.589 94.09 330.019 93.985 329.519 93.775C329.029 93.565 328.609 93.245 328.259 92.815C327.909 92.385 327.644 91.855 327.464 91.225C327.284 90.585 327.194 89.845 327.194 89.005C327.194 88.255 327.264 87.6 327.404 87.04C327.544 86.47 327.739 85.98 327.989 85.57C328.239 85.16 328.529 84.815 328.859 84.535C329.199 84.245 329.564 84.015 329.954 83.845C330.354 83.665 330.764 83.53 331.184 83.44L334.724 82.615L334.904 83.605L331.574 84.355C331.364 84.405 331.109 84.475 330.809 84.565C330.519 84.655 330.219 84.79 329.909 84.97C329.609 85.15 329.329 85.4 329.069 85.72C328.809 86.04 328.599 86.455 328.439 86.965C328.289 87.465 328.214 88.09 328.214 88.84C328.214 89 328.219 89.13 328.229 89.23C328.239 89.32 328.249 89.42 328.259 89.53C328.279 89.63 328.294 89.78 328.304 89.98L327.839 89.59C327.949 88.98 328.174 88.45 328.514 88C328.854 87.54 329.279 87.185 329.789 86.935C330.309 86.675 330.884 86.545 331.514 86.545C332.244 86.545 332.894 86.705 333.464 87.025C334.034 87.335 334.479 87.77 334.799 88.33C335.129 88.89 335.294 89.54 335.294 90.28C335.294 91.01 335.124 91.665 334.784 92.245C334.454 92.825 333.984 93.28 333.374 93.61C332.764 93.93 332.049 94.09 331.229 94.09ZM331.349 93.205C331.909 93.205 332.404 93.08 332.834 92.83C333.264 92.57 333.599 92.22 333.839 91.78C334.089 91.34 334.214 90.845 334.214 90.295C334.214 89.755 334.089 89.275 333.839 88.855C333.599 88.435 333.264 88.105 332.834 87.865C332.404 87.615 331.904 87.49 331.334 87.49C330.774 87.49 330.279 87.61 329.849 87.85C329.419 88.08 329.079 88.405 328.829 88.825C328.589 89.245 328.469 89.73 328.469 90.28C328.469 90.83 328.589 91.325 328.829 91.765C329.079 92.205 329.419 92.555 329.849 92.815C330.289 93.075 330.789 93.205 331.349 93.205ZM340.952 94.075C340.132 94.075 339.412 93.905 338.792 93.565C338.172 93.215 337.687 92.74 337.337 92.14C336.987 91.53 336.812 90.835 336.812 90.055C336.812 89.275 336.977 88.585 337.307 87.985C337.647 87.385 338.107 86.915 338.687 86.575C339.277 86.225 339.937 86.05 340.667 86.05C341.407 86.05 342.062 86.22 342.632 86.56C343.212 86.89 343.667 87.36 343.997 87.97C344.327 88.57 344.492 89.265 344.492 90.055C344.492 90.105 344.487 90.16 344.477 90.22C344.477 90.27 344.477 90.325 344.477 90.385H337.622V89.59H343.907L343.487 89.905C343.487 89.335 343.362 88.83 343.112 88.39C342.872 87.94 342.542 87.59 342.122 87.34C341.702 87.09 341.217 86.965 340.667 86.965C340.127 86.965 339.642 87.09 339.212 87.34C338.782 87.59 338.447 87.94 338.207 88.39C337.967 88.84 337.847 89.355 337.847 89.935V90.1C337.847 90.7 337.977 91.23 338.237 91.69C338.507 92.14 338.877 92.495 339.347 92.755C339.827 93.005 340.372 93.13 340.982 93.13C341.462 93.13 341.907 93.045 342.317 92.875C342.737 92.705 343.097 92.445 343.397 92.095L343.997 92.785C343.647 93.205 343.207 93.525 342.677 93.745C342.157 93.965 341.582 94.075 340.952 94.075ZM350.149 94.075C349.369 94.075 348.669 93.905 348.049 93.565C347.439 93.215 346.959 92.74 346.609 92.14C346.259 91.53 346.084 90.835 346.084 90.055C346.084 89.265 346.259 88.57 346.609 87.97C346.959 87.37 347.439 86.9 348.049 86.56C348.669 86.22 349.369 86.05 350.149 86.05C350.819 86.05 351.424 86.18 351.964 86.44C352.504 86.7 352.929 87.09 353.239 87.61L352.444 88.15C352.174 87.75 351.839 87.455 351.439 87.265C351.039 87.075 350.604 86.98 350.134 86.98C349.574 86.98 349.069 87.11 348.619 87.37C348.169 87.62 347.814 87.975 347.554 88.435C347.294 88.895 347.164 89.435 347.164 90.055C347.164 90.675 347.294 91.215 347.554 91.675C347.814 92.135 348.169 92.495 348.619 92.755C349.069 93.005 349.574 93.13 350.134 93.13C350.604 93.13 351.039 93.035 351.439 92.845C351.839 92.655 352.174 92.365 352.444 91.975L353.239 92.515C352.929 93.025 352.504 93.415 351.964 93.685C351.424 93.945 350.819 94.075 350.149 94.075ZM355.301 94V86.125H362.381V94H361.316V86.77L361.586 87.055H356.096L356.366 86.77V94H355.301ZM368.784 94.075C367.964 94.075 367.244 93.905 366.624 93.565C366.004 93.215 365.519 92.74 365.169 92.14C364.819 91.53 364.644 90.835 364.644 90.055C364.644 89.275 364.809 88.585 365.139 87.985C365.479 87.385 365.939 86.915 366.519 86.575C367.109 86.225 367.769 86.05 368.499 86.05C369.239 86.05 369.894 86.22 370.464 86.56C371.044 86.89 371.499 87.36 371.829 87.97C372.159 88.57 372.324 89.265 372.324 90.055C372.324 90.105 372.319 90.16 372.309 90.22C372.309 90.27 372.309 90.325 372.309 90.385H365.454V89.59H371.739L371.319 89.905C371.319 89.335 371.194 88.83 370.944 88.39C370.704 87.94 370.374 87.59 369.954 87.34C369.534 87.09 369.049 86.965 368.499 86.965C367.959 86.965 367.474 87.09 367.044 87.34C366.614 87.59 366.279 87.94 366.039 88.39C365.799 88.84 365.679 89.355 365.679 89.935V90.1C365.679 90.7 365.809 91.23 366.069 91.69C366.339 92.14 366.709 92.495 367.179 92.755C367.659 93.005 368.204 93.13 368.814 93.13C369.294 93.13 369.739 93.045 370.149 92.875C370.569 92.705 370.929 92.445 371.229 92.095L371.829 92.785C371.479 93.205 371.039 93.525 370.509 93.745C369.989 93.965 369.414 94.075 368.784 94.075ZM379.661 90.67C379.201 90.87 378.736 91.03 378.266 91.15C377.806 91.26 377.346 91.315 376.886 91.315C375.956 91.315 375.221 91.105 374.681 90.685C374.141 90.255 373.871 89.595 373.871 88.705V86.125H374.921V88.645C374.921 89.245 375.116 89.695 375.506 89.995C375.896 90.295 376.421 90.445 377.081 90.445C377.481 90.445 377.901 90.395 378.341 90.295C378.781 90.185 379.226 90.03 379.676 89.83L379.661 90.67ZM379.571 94V86.125H380.636V94H379.571ZM383.661 94V86.125H384.726V92.38L389.991 86.125H390.936V94H389.871V87.73L384.621 94H383.661ZM393.988 94V86.125H397.468C398.358 86.125 399.058 86.295 399.568 86.635C400.088 86.975 400.348 87.475 400.348 88.135C400.348 88.775 400.103 89.27 399.613 89.62C399.123 89.96 398.478 90.13 397.678 90.13L397.888 89.815C398.828 89.815 399.518 89.99 399.958 90.34C400.398 90.69 400.618 91.195 400.618 91.855C400.618 92.535 400.368 93.065 399.868 93.445C399.378 93.815 398.613 94 397.573 94H393.988ZM395.023 93.16H397.528C398.198 93.16 398.703 93.055 399.043 92.845C399.393 92.625 399.568 92.275 399.568 91.795C399.568 91.315 399.413 90.965 399.103 90.745C398.793 90.525 398.303 90.415 397.633 90.415H395.023V93.16ZM395.023 89.62H397.393C398.003 89.62 398.468 89.505 398.788 89.275C399.118 89.045 399.283 88.71 399.283 88.27C399.283 87.83 399.118 87.5 398.788 87.28C398.468 87.06 398.003 86.95 397.393 86.95H395.023V89.62ZM27.0591 111V103.125H30.5391C31.4291 103.125 32.1291 103.295 32.6391 103.635C33.1591 103.975 33.4191 104.475 33.4191 105.135C33.4191 105.775 33.1741 106.27 32.6841 106.62C32.1941 106.96 31.5491 107.13 30.7491 107.13L30.9591 106.815C31.8991 106.815 32.5891 106.99 33.0291 107.34C33.4691 107.69 33.6891 108.195 33.6891 108.855C33.6891 109.535 33.4391 110.065 32.9391 110.445C32.4491 110.815 31.6841 111 30.6441 111H27.0591ZM28.0941 110.16H30.5991C31.2691 110.16 31.7741 110.055 32.1141 109.845C32.4641 109.625 32.6391 109.275 32.6391 108.795C32.6391 108.315 32.4841 107.965 32.1741 107.745C31.8641 107.525 31.3741 107.415 30.7041 107.415H28.0941V110.16ZM28.0941 106.62H30.4641C31.0741 106.62 31.5391 106.505 31.8591 106.275C32.1891 106.045 32.3541 105.71 32.3541 105.27C32.3541 104.83 32.1891 104.5 31.8591 104.28C31.5391 104.06 31.0741 103.95 30.4641 103.95H28.0941V106.62ZM41.0751 111V109.26L41.0301 108.975V106.065C41.0301 105.395 40.8401 104.88 40.4601 104.52C40.0901 104.16 39.5351 103.98 38.7951 103.98C38.2851 103.98 37.8001 104.065 37.3401 104.235C36.8801 104.405 36.4901 104.63 36.1701 104.91L35.6901 104.115C36.0901 103.775 36.5701 103.515 37.1301 103.335C37.6901 103.145 38.2801 103.05 38.9001 103.05C39.9201 103.05 40.7051 103.305 41.2551 103.815C41.8151 104.315 42.0951 105.08 42.0951 106.11V111H41.0751ZM38.3601 111.075C37.7701 111.075 37.2551 110.98 36.8151 110.79C36.3851 110.59 36.0551 110.32 35.8251 109.98C35.5951 109.63 35.4801 109.23 35.4801 108.78C35.4801 108.37 35.5751 108 35.7651 107.67C35.9651 107.33 36.2851 107.06 36.7251 106.86C37.1751 106.65 37.7751 106.545 38.5251 106.545H41.2401V107.34H38.5551C37.7951 107.34 37.2651 107.475 36.9651 107.745C36.6751 108.015 36.5301 108.35 36.5301 108.75C36.5301 109.2 36.7051 109.56 37.0551 109.83C37.4051 110.1 37.8951 110.235 38.5251 110.235C39.1251 110.235 39.6401 110.1 40.0701 109.83C40.5101 109.55 40.8301 109.15 41.0301 108.63L41.2701 109.365C41.0701 109.885 40.7201 110.3 40.2201 110.61C39.7301 110.92 39.1101 111.075 38.3601 111.075ZM50.1052 110.07L49.8652 110.355V103.125H50.9302V110.355L50.6452 110.07H55.0402L54.7552 110.355V103.125H55.8202V111H44.9302V103.125H45.9952V110.355L45.7252 110.07H50.1052ZM68.172 110.49V104.055H64.377L64.287 105.81C64.267 106.34 64.232 106.86 64.182 107.37C64.142 107.88 64.067 108.35 63.957 108.78C63.857 109.2 63.712 109.545 63.522 109.815C63.332 110.075 63.087 110.225 62.787 110.265L61.722 110.07C62.032 110.08 62.287 109.97 62.487 109.74C62.687 109.5 62.842 109.175 62.952 108.765C63.062 108.355 63.142 107.89 63.192 107.37C63.242 106.84 63.282 106.3 63.312 105.75L63.417 103.125H69.237V110.49H68.172ZM61.392 112.905V110.07H70.467V112.905H69.462V111H62.397V112.905H61.392ZM75.7825 111.075C75.0225 111.075 74.3375 110.905 73.7275 110.565C73.1275 110.215 72.6525 109.74 72.3025 109.14C71.9525 108.53 71.7775 107.835 71.7775 107.055C71.7775 106.265 71.9525 105.57 72.3025 104.97C72.6525 104.37 73.1275 103.9 73.7275 103.56C74.3275 103.22 75.0125 103.05 75.7825 103.05C76.5625 103.05 77.2525 103.22 77.8525 103.56C78.4625 103.9 78.9375 104.37 79.2775 104.97C79.6275 105.57 79.8025 106.265 79.8025 107.055C79.8025 107.835 79.6275 108.53 79.2775 109.14C78.9375 109.74 78.4625 110.215 77.8525 110.565C77.2425 110.905 76.5525 111.075 75.7825 111.075ZM75.7825 110.13C76.3525 110.13 76.8575 110.005 77.2975 109.755C77.7375 109.495 78.0825 109.135 78.3325 108.675C78.5925 108.205 78.7225 107.665 78.7225 107.055C78.7225 106.435 78.5925 105.895 78.3325 105.435C78.0825 104.975 77.7375 104.62 77.2975 104.37C76.8575 104.11 76.3575 103.98 75.7975 103.98C75.2375 103.98 74.7375 104.11 74.2975 104.37C73.8575 104.62 73.5075 104.975 73.2475 105.435C72.9875 105.895 72.8575 106.435 72.8575 107.055C72.8575 107.665 72.9875 108.205 73.2475 108.675C73.5075 109.135 73.8575 109.495 74.2975 109.755C74.7375 110.005 75.2325 110.13 75.7825 110.13ZM82.0787 111V103.125H83.1587L86.7287 109.17H86.2787L89.9087 103.125H90.8987V111H89.9237V104.34L90.1187 104.43L86.7287 110.04H86.2487L82.8287 104.37L83.0537 104.325V111H82.0787ZM97.855 111V103.125H101.335C102.225 103.125 102.925 103.295 103.435 103.635C103.955 103.975 104.215 104.475 104.215 105.135C104.215 105.775 103.97 106.27 103.48 106.62C102.99 106.96 102.345 107.13 101.545 107.13L101.755 106.815C102.695 106.815 103.385 106.99 103.825 107.34C104.265 107.69 104.485 108.195 104.485 108.855C104.485 109.535 104.235 110.065 103.735 110.445C103.245 110.815 102.48 111 101.44 111H97.855ZM98.89 110.16H101.395C102.065 110.16 102.57 110.055 102.91 109.845C103.26 109.625 103.435 109.275 103.435 108.795C103.435 108.315 103.28 107.965 102.97 107.745C102.66 107.525 102.17 107.415 101.5 107.415H98.89V110.16ZM98.89 106.62H101.26C101.87 106.62 102.335 106.505 102.655 106.275C102.985 106.045 103.15 105.71 103.15 105.27C103.15 104.83 102.985 104.5 102.655 104.28C102.335 104.06 101.87 103.95 101.26 103.95H98.89V106.62ZM110.281 111.075C109.501 111.075 108.801 110.905 108.181 110.565C107.571 110.215 107.091 109.74 106.741 109.14C106.391 108.53 106.216 107.835 106.216 107.055C106.216 106.265 106.391 105.57 106.741 104.97C107.091 104.37 107.571 103.9 108.181 103.56C108.801 103.22 109.501 103.05 110.281 103.05C110.951 103.05 111.556 103.18 112.096 103.44C112.636 103.7 113.061 104.09 113.371 104.61L112.576 105.15C112.306 104.75 111.971 104.455 111.571 104.265C111.171 104.075 110.736 103.98 110.266 103.98C109.706 103.98 109.201 104.11 108.751 104.37C108.301 104.62 107.946 104.975 107.686 105.435C107.426 105.895 107.296 106.435 107.296 107.055C107.296 107.675 107.426 108.215 107.686 108.675C107.946 109.135 108.301 109.495 108.751 109.755C109.201 110.005 109.706 110.13 110.266 110.13C110.736 110.13 111.171 110.035 111.571 109.845C111.971 109.655 112.306 109.365 112.576 108.975L113.371 109.515C113.061 110.025 112.636 110.415 112.096 110.685C111.556 110.945 110.951 111.075 110.281 111.075ZM118.676 111.075C117.856 111.075 117.136 110.905 116.516 110.565C115.896 110.215 115.411 109.74 115.061 109.14C114.711 108.53 114.536 107.835 114.536 107.055C114.536 106.275 114.701 105.585 115.031 104.985C115.371 104.385 115.831 103.915 116.411 103.575C117.001 103.225 117.661 103.05 118.391 103.05C119.131 103.05 119.786 103.22 120.356 103.56C120.936 103.89 121.391 104.36 121.721 104.97C122.051 105.57 122.216 106.265 122.216 107.055C122.216 107.105 122.211 107.16 122.201 107.22C122.201 107.27 122.201 107.325 122.201 107.385H115.346V106.59H121.631L121.211 106.905C121.211 106.335 121.086 105.83 120.836 105.39C120.596 104.94 120.266 104.59 119.846 104.34C119.426 104.09 118.941 103.965 118.391 103.965C117.851 103.965 117.366 104.09 116.936 104.34C116.506 104.59 116.171 104.94 115.931 105.39C115.691 105.84 115.571 106.355 115.571 106.935V107.1C115.571 107.7 115.701 108.23 115.961 108.69C116.231 109.14 116.601 109.495 117.071 109.755C117.551 110.005 118.096 110.13 118.706 110.13C119.186 110.13 119.631 110.045 120.041 109.875C120.461 109.705 120.821 109.445 121.121 109.095L121.721 109.785C121.371 110.205 120.931 110.525 120.401 110.745C119.881 110.965 119.306 111.075 118.676 111.075ZM124.574 111V103.125H125.654L129.224 109.17H128.774L132.404 103.125H133.394V111H132.419V104.34L132.614 104.43L129.224 110.04H128.744L125.324 104.37L125.549 104.325V111H124.574ZM136.424 111V103.125H137.489V109.38L142.754 103.125H143.699V111H142.634V104.73L137.384 111H136.424ZM150.812 113.985C150.442 113.985 150.087 113.925 149.747 113.805C149.417 113.685 149.132 113.505 148.892 113.265L149.387 112.47C149.587 112.66 149.802 112.805 150.032 112.905C150.272 113.015 150.537 113.07 150.827 113.07C151.177 113.07 151.477 112.97 151.727 112.77C151.987 112.58 152.232 112.24 152.462 111.75L152.972 110.595L153.092 110.43L156.332 103.125H157.382L153.437 111.945C153.217 112.455 152.972 112.86 152.702 113.16C152.442 113.46 152.157 113.67 151.847 113.79C151.537 113.92 151.192 113.985 150.812 113.985ZM152.912 111.225L149.282 103.125H150.392L153.602 110.355L152.912 111.225ZM164.09 110.49V104.055H160.295L160.205 105.81C160.185 106.34 160.15 106.86 160.1 107.37C160.06 107.88 159.985 108.35 159.875 108.78C159.775 109.2 159.63 109.545 159.44 109.815C159.25 110.075 159.005 110.225 158.705 110.265L157.64 110.07C157.95 110.08 158.205 109.97 158.405 109.74C158.605 109.5 158.76 109.175 158.87 108.765C158.98 108.355 159.06 107.89 159.11 107.37C159.16 106.84 159.2 106.3 159.23 105.75L159.335 103.125H165.155V110.49H164.09ZM157.31 112.905V110.07H166.385V112.905H165.38V111H158.315V112.905H157.31ZM171.7 111.075C170.94 111.075 170.255 110.905 169.645 110.565C169.045 110.215 168.57 109.74 168.22 109.14C167.87 108.53 167.695 107.835 167.695 107.055C167.695 106.265 167.87 105.57 168.22 104.97C168.57 104.37 169.045 103.9 169.645 103.56C170.245 103.22 170.93 103.05 171.7 103.05C172.48 103.05 173.17 103.22 173.77 103.56C174.38 103.9 174.855 104.37 175.195 104.97C175.545 105.57 175.72 106.265 175.72 107.055C175.72 107.835 175.545 108.53 175.195 109.14C174.855 109.74 174.38 110.215 173.77 110.565C173.16 110.905 172.47 111.075 171.7 111.075ZM171.7 110.13C172.27 110.13 172.775 110.005 173.215 109.755C173.655 109.495 174 109.135 174.25 108.675C174.51 108.205 174.64 107.665 174.64 107.055C174.64 106.435 174.51 105.895 174.25 105.435C174 104.975 173.655 104.62 173.215 104.37C172.775 104.11 172.275 103.98 171.715 103.98C171.155 103.98 170.655 104.11 170.215 104.37C169.775 104.62 169.425 104.975 169.165 105.435C168.905 105.895 168.775 106.435 168.775 107.055C168.775 107.665 168.905 108.205 169.165 108.675C169.425 109.135 169.775 109.495 170.215 109.755C170.655 110.005 171.15 110.13 171.7 110.13ZM181.537 111.09C180.897 111.09 180.327 110.985 179.827 110.775C179.337 110.565 178.917 110.245 178.567 109.815C178.217 109.385 177.952 108.855 177.772 108.225C177.592 107.585 177.502 106.845 177.502 106.005C177.502 105.255 177.572 104.6 177.712 104.04C177.852 103.47 178.047 102.98 178.297 102.57C178.547 102.16 178.837 101.815 179.167 101.535C179.507 101.245 179.872 101.015 180.262 100.845C180.662 100.665 181.072 100.53 181.492 100.44L185.032 99.615L185.212 100.605L181.882 101.355C181.672 101.405 181.417 101.475 181.117 101.565C180.827 101.655 180.527 101.79 180.217 101.97C179.917 102.15 179.637 102.4 179.377 102.72C179.117 103.04 178.907 103.455 178.747 103.965C178.597 104.465 178.522 105.09 178.522 105.84C178.522 106 178.527 106.13 178.537 106.23C178.547 106.32 178.557 106.42 178.567 106.53C178.587 106.63 178.602 106.78 178.612 106.98L178.147 106.59C178.257 105.98 178.482 105.45 178.822 105C179.162 104.54 179.587 104.185 180.097 103.935C180.617 103.675 181.192 103.545 181.822 103.545C182.552 103.545 183.202 103.705 183.772 104.025C184.342 104.335 184.787 104.77 185.107 105.33C185.437 105.89 185.602 106.54 185.602 107.28C185.602 108.01 185.432 108.665 185.092 109.245C184.762 109.825 184.292 110.28 183.682 110.61C183.072 110.93 182.357 111.09 181.537 111.09ZM181.657 110.205C182.217 110.205 182.712 110.08 183.142 109.83C183.572 109.57 183.907 109.22 184.147 108.78C184.397 108.34 184.522 107.845 184.522 107.295C184.522 106.755 184.397 106.275 184.147 105.855C183.907 105.435 183.572 105.105 183.142 104.865C182.712 104.615 182.212 104.49 181.642 104.49C181.082 104.49 180.587 104.61 180.157 104.85C179.727 105.08 179.387 105.405 179.137 105.825C178.897 106.245 178.777 106.73 178.777 107.28C178.777 107.83 178.897 108.325 179.137 108.765C179.387 109.205 179.727 109.555 180.157 109.815C180.597 110.075 181.097 110.205 181.657 110.205ZM191.184 111.075C190.404 111.075 189.704 110.905 189.084 110.565C188.474 110.215 187.994 109.74 187.644 109.14C187.294 108.53 187.119 107.835 187.119 107.055C187.119 106.265 187.294 105.57 187.644 104.97C187.994 104.37 188.474 103.9 189.084 103.56C189.704 103.22 190.404 103.05 191.184 103.05C191.854 103.05 192.459 103.18 192.999 103.44C193.539 103.7 193.964 104.09 194.274 104.61L193.479 105.15C193.209 104.75 192.874 104.455 192.474 104.265C192.074 104.075 191.639 103.98 191.169 103.98C190.609 103.98 190.104 104.11 189.654 104.37C189.204 104.62 188.849 104.975 188.589 105.435C188.329 105.895 188.199 106.435 188.199 107.055C188.199 107.675 188.329 108.215 188.589 108.675C188.849 109.135 189.204 109.495 189.654 109.755C190.104 110.005 190.609 110.13 191.169 110.13C191.639 110.13 192.074 110.035 192.474 109.845C192.874 109.655 193.209 109.365 193.479 108.975L194.274 109.515C193.964 110.025 193.539 110.415 192.999 110.685C192.459 110.945 191.854 111.075 191.184 111.075ZM197.69 111V103.77L197.96 104.055H194.705V103.125H201.74V104.055H198.485L198.755 103.77V111H197.69ZM203.28 111V103.125H206.76C207.65 103.125 208.35 103.295 208.86 103.635C209.38 103.975 209.64 104.475 209.64 105.135C209.64 105.775 209.395 106.27 208.905 106.62C208.415 106.96 207.77 107.13 206.97 107.13L207.18 106.815C208.12 106.815 208.81 106.99 209.25 107.34C209.69 107.69 209.91 108.195 209.91 108.855C209.91 109.535 209.66 110.065 209.16 110.445C208.67 110.815 207.905 111 206.865 111H203.28ZM204.315 110.16H206.82C207.49 110.16 207.995 110.055 208.335 109.845C208.685 109.625 208.86 109.275 208.86 108.795C208.86 108.315 208.705 107.965 208.395 107.745C208.085 107.525 207.595 107.415 206.925 107.415H204.315V110.16ZM204.315 106.62H206.685C207.295 106.62 207.76 106.505 208.08 106.275C208.41 106.045 208.575 105.71 208.575 105.27C208.575 104.83 208.41 104.5 208.08 104.28C207.76 104.06 207.295 103.95 206.685 103.95H204.315V106.62ZM217.296 111V109.26L217.251 108.975V106.065C217.251 105.395 217.061 104.88 216.681 104.52C216.311 104.16 215.756 103.98 215.016 103.98C214.506 103.98 214.021 104.065 213.561 104.235C213.101 104.405 212.711 104.63 212.391 104.91L211.911 104.115C212.311 103.775 212.791 103.515 213.351 103.335C213.911 103.145 214.501 103.05 215.121 103.05C216.141 103.05 216.926 103.305 217.476 103.815C218.036 104.315 218.316 105.08 218.316 106.11V111H217.296ZM214.581 111.075C213.991 111.075 213.476 110.98 213.036 110.79C212.606 110.59 212.276 110.32 212.046 109.98C211.816 109.63 211.701 109.23 211.701 108.78C211.701 108.37 211.796 108 211.986 107.67C212.186 107.33 212.506 107.06 212.946 106.86C213.396 106.65 213.996 106.545 214.746 106.545H217.461V107.34H214.776C214.016 107.34 213.486 107.475 213.186 107.745C212.896 108.015 212.751 108.35 212.751 108.75C212.751 109.2 212.926 109.56 213.276 109.83C213.626 110.1 214.116 110.235 214.746 110.235C215.346 110.235 215.861 110.1 216.291 109.83C216.731 109.55 217.051 109.15 217.251 108.63L217.491 109.365C217.291 109.885 216.941 110.3 216.441 110.61C215.951 110.92 215.331 111.075 214.581 111.075ZM221.151 111V103.125H222.231L225.801 109.17H225.351L228.981 103.125H229.971V111H228.996V104.34L229.191 104.43L225.801 110.04H225.321L221.901 104.37L222.126 104.325V111H221.151ZM233.002 111V103.125H234.067V109.38L239.332 103.125H240.277V111H239.212V104.73L233.962 111H233.002ZM243.404 111.075C243.184 111.075 242.994 110.995 242.834 110.835C242.684 110.675 242.609 110.48 242.609 110.25C242.609 110.01 242.684 109.815 242.834 109.665C242.994 109.515 243.184 109.44 243.404 109.44C243.624 109.44 243.809 109.515 243.959 109.665C244.119 109.815 244.199 110.01 244.199 110.25C244.199 110.48 244.119 110.675 243.959 110.835C243.809 110.995 243.624 111.075 243.404 111.075Z" fill="#2E2E2E"/>
</g>
</svg>
