<svg width="28" height="24" viewBox="0 0 28 24" fill="none" xmlns="http://www.w3.org/2000/svg">
<path fill-rule="evenodd" clip-rule="evenodd" d="M21.3797 23.5825C21.7457 23.849 22.2174 23.9156 22.6379 23.752C23.0585 23.5871 23.3676 23.2177 23.4608 22.7699C24.4485 17.9954 26.8444 5.91059 27.7435 1.56745C27.8117 1.24011 27.698 0.899902 27.448 0.681284C27.1979 0.462665 26.8513 0.399534 26.5421 0.517612C21.7764 2.33203 7.09973 7.99624 1.10085 10.2795C0.7201 10.4244 0.472325 10.8009 0.484827 11.2136C0.498466 11.6274 0.768973 11.9863 1.15882 12.1067C3.84911 12.9344 7.38047 14.086 7.38047 14.086C7.38047 14.086 9.03078 19.2124 9.89118 21.8195C9.99915 22.1468 10.2481 22.404 10.5765 22.4929C10.9039 22.5806 11.2539 22.4882 11.4983 22.2509C12.8804 20.9088 15.0172 18.8336 15.0172 18.8336C15.0172 18.8336 19.077 21.8955 21.3797 23.5825ZM8.86598 13.4383L10.7743 19.9127L11.1982 15.8127C11.1982 15.8127 18.5713 8.97242 22.7743 5.07353C22.8971 4.95896 22.9141 4.76723 22.8118 4.63279C22.7107 4.49834 22.5243 4.46678 22.3845 4.55796C17.5131 7.75775 8.86598 13.4383 8.86598 13.4383Z" fill="#1D1D1D"/>
</svg>
