<svg width="27" height="16" viewBox="0 0 27 16" fill="none" xmlns="http://www.w3.org/2000/svg">
<path d="M14.8066 15.9929C15.4917 15.9929 15.7718 15.5289 15.764 14.9472C15.7291 12.7564 16.5672 11.577 18.0802 13.1141C19.7542 14.8147 20.1007 15.9929 22.1335 15.9929H25.7333C26.6423 15.9929 27 15.6958 27 15.2295C27 14.2432 25.4014 12.5027 24.047 11.225C22.1503 9.43645 22.0615 9.39416 23.6949 7.24105C25.7209 4.56794 28.3713 1.14284 26.0269 1.14284H21.5485C20.68 1.14284 20.617 1.63998 20.3077 2.38054C19.1883 5.06279 17.061 8.53703 16.2533 8.00561C15.4085 7.45133 15.7955 5.25593 15.8596 1.99312C15.8765 1.13141 15.872 0.540564 14.576 0.234283C13.8684 0.0685704 13.18 0 12.541 0C9.98396 0 8.22003 1.08913 9.22237 1.27884C10.9897 1.61369 10.8198 5.49821 10.4081 7.17591C9.69035 10.097 6.99271 4.86279 5.86888 2.25597C5.59777 1.62969 5.51452 1.14284 4.54706 1.14284H0.885338C0.331861 1.14284 0 1.3257 0 1.73255C0 2.42054 3.32986 9.41245 6.50898 12.8981C9.60935 16.2981 12.6737 15.9929 14.8066 15.9929Z" fill="#EFEFEF"/>
</svg>
