<svg width="29" height="17" viewBox="0 0 29 17" fill="none" xmlns="http://www.w3.org/2000/svg">
<path d="M16.1831 16.9365C16.9 16.9365 17.1931 16.4562 17.1849 15.8541C17.1484 13.5863 18.0254 12.3655 19.6086 13.9566C21.3602 15.7169 21.7228 16.9365 23.8499 16.9365L27.6168 16.9365C28.5679 16.9365 28.9423 16.6289 28.9423 16.1463C28.9423 15.1254 27.2695 13.3237 25.8522 12.0011C23.8676 10.1497 23.7746 10.106 25.4838 7.87722C27.6038 5.11022 30.3772 1.56482 27.924 1.56482L23.2378 1.56482C22.329 1.56482 22.2631 2.07942 21.9394 2.84599C20.7681 5.62246 18.5421 9.21873 17.6969 8.66864C16.8129 8.09489 17.2178 5.82238 17.2849 2.44496C17.3026 1.55299 17.2979 0.941387 15.9418 0.624348C15.2014 0.452815 14.481 0.381836 13.8123 0.381836C11.1367 0.381836 9.2909 1.50922 10.3397 1.7056C12.189 2.05221 12.0113 6.07317 11.5805 7.80979C10.8294 10.8335 8.00663 5.41543 6.83065 2.71705C6.54696 2.06877 6.45985 1.56482 5.4475 1.56482L1.61587 1.56482C1.03671 1.56482 0.689453 1.7541 0.689453 2.17524C0.689453 2.8874 4.17382 10.1249 7.50045 13.733C10.7447 17.2524 13.9512 16.9365 16.1831 16.9365Z" fill="#000"/>
</svg>
