<svg width="25" height="26" viewBox="0 0 25 26" fill="none" xmlns="http://www.w3.org/2000/svg">
<path fill-rule="evenodd" clip-rule="evenodd" d="M13.3355 14.9912C13.3355 14.9912 13.7924 15.0313 14.0375 14.7305L14.5169 14.1363C14.748 13.8408 15.3066 13.6529 15.8535 13.9527C16.5769 14.3558 17.5121 14.9891 18.1531 15.579C18.5063 15.8724 18.5887 16.3052 18.3479 16.7621L18.3458 16.7716C18.0975 17.2022 17.7668 17.6065 17.3484 17.9832L17.3388 17.9896C16.8679 18.3769 16.3264 18.6017 15.7475 18.416L15.7368 18.4012C14.6967 18.1109 12.2011 16.8561 10.611 15.6054C8.0095 13.5811 6.16034 10.2418 5.64883 8.45188L5.63278 8.44133C5.44444 7.86824 5.67451 7.33421 6.0651 6.87089L6.07259 6.86244C6.45463 6.44978 6.86341 6.1226 7.30109 5.87881L7.31072 5.87669C7.77301 5.63923 8.21176 5.71944 8.51032 6.06878C8.90305 6.46878 9.64036 7.43131 10.1583 8.33684C10.4622 8.8751 10.2717 9.42708 9.97317 9.65399L9.36962 10.1268C9.06571 10.3696 9.1053 10.8202 9.1053 10.8202C9.1053 10.8202 9.99778 14.1511 13.3355 14.9912ZM18.5865 12.2302C18.4078 12.2302 18.2623 12.0878 18.2612 11.9115C18.2462 9.98011 17.6577 8.44133 16.5126 7.33949C15.3655 6.23659 13.9155 5.67089 12.2033 5.65928C12.0235 5.65823 11.879 5.51364 11.8812 5.33633C11.8823 5.16007 12.0267 5.01865 12.2054 5.01865L12.2076 5.01865C14.0931 5.03131 15.694 5.65823 16.9664 6.88038C18.2398 8.10676 18.8947 9.79858 18.9108 11.9073C18.9118 12.0835 18.7685 12.2281 18.5887 12.2302L18.5865 12.2302ZM16.8797 11.5717L16.8722 11.5717C16.6924 11.5674 16.5501 11.4207 16.5544 11.2445C16.5801 10.149 16.2622 9.26243 15.5849 8.53315C14.9107 7.80597 13.985 7.40914 12.7544 7.32049C12.5757 7.30677 12.4409 7.15373 12.4537 6.97748C12.4676 6.80123 12.6228 6.66825 12.8015 6.68091C14.1862 6.78118 15.2842 7.25927 16.0643 8.10043C16.8487 8.94476 17.2328 10.0075 17.2039 11.2582C17.1997 11.4323 17.0552 11.5717 16.8797 11.5717ZM15.2125 11.0207C15.0402 11.0207 14.8968 10.8878 14.8882 10.7157C14.8336 9.62866 14.3136 9.09674 13.2541 9.03974C13.0744 9.03024 12.9374 8.87932 12.947 8.70307C12.9567 8.52576 13.1086 8.39067 13.2884 8.40017C14.6881 8.47405 15.465 9.26454 15.5367 10.6841C15.5463 10.8603 15.4083 11.0112 15.2285 11.0197L15.2125 11.0207ZM22.5074 14.6819C21.86 19.8291 18.0429 20.1542 17.3388 20.3769C17.0391 20.4719 14.2547 21.1547 10.7554 20.9299C10.7554 20.9299 8.14648 24.0328 7.33212 24.8402C7.20478 24.9658 7.05603 25.0165 6.95544 24.9932C6.81525 24.9595 6.77673 24.7948 6.77887 24.5563L6.80027 20.3178C1.70438 18.9215 2.0008 13.673 2.05859 10.9258C2.11638 8.17853 2.63966 5.92735 4.19454 4.4139C6.98754 1.91893 12.7416 2.29148 12.7416 2.29148C17.601 2.31259 19.9295 3.75533 20.4699 4.23871C22.2624 5.75216 23.1752 9.37536 22.5074 14.6819ZM21.8097 2.95322C21.1709 2.37486 18.5919 0.527903 12.8475 0.502573C12.8475 0.502573 6.07366 0.0994087 2.77129 3.08832C0.932827 4.9015 0.286477 7.55373 0.217989 10.8434C0.150572 14.1342 0.0617518 20.2977 6.08651 21.9695L6.09293 21.9716L6.08865 24.5215C6.08865 24.5215 6.05119 25.5547 6.74035 25.7658C7.57397 26.0201 8.06301 25.236 8.86025 24.3895C9.29685 23.9252 9.89933 23.2434 10.3552 22.722C14.4762 23.0618 17.6448 22.2819 18.0055 22.1669C18.8369 21.8998 23.5454 21.3057 24.3117 15.141C25.1014 8.78539 23.9286 4.76641 21.8097 2.95322Z" fill="#1D1D1D"/>
</svg>
