<svg width="35" height="44" viewBox="0 0 35 44" fill="none" xmlns="http://www.w3.org/2000/svg">
<path fill-rule="evenodd" clip-rule="evenodd" d="M18.789 0.500295C20.2527 0.498072 21.5516 0.496105 22.7513 0.988729C23.951 1.48135 24.8683 2.39328 25.9015 3.42083C27.9491 5.4568 29.9999 7.4897 32.0536 9.51943C33.0901 10.5438 34.0102 11.453 34.507 12.6423C35.004 13.8316 35.0021 15.1193 34.9997 16.5702C34.9915 21.9479 34.9995 27.3256 34.9995 32.7035C34.9997 34.5984 34.9997 36.231 34.8224 37.5382C34.6323 38.9393 34.2038 40.2825 33.1048 41.372C32.006 42.4613 30.651 42.8862 29.2376 43.0745C27.9187 43.2502 26.2718 43.2502 24.3603 43.25H11.1392C9.22772 43.2502 7.58076 43.2502 6.26187 43.0745C4.84845 42.8862 3.49359 42.4613 2.39463 41.372C1.29569 40.2825 0.867166 38.9393 0.677138 37.5382C0.499811 36.231 0.499897 34.5984 0.500005 32.7035L0.500027 11.188C0.500027 11.1409 0.500005 11.094 0.500005 11.0473C0.499897 9.15242 0.499811 7.5198 0.677138 6.21237C0.867166 4.81123 1.29569 3.46815 2.39465 2.37877C3.49359 1.28936 4.84845 0.864563 6.26187 0.676187C7.58074 0.500402 9.2277 0.500487 11.1392 0.500594C13.6891 0.500744 16.2391 0.504185 18.789 0.500295ZM25.743 20.3639C26.585 21.1985 26.585 22.552 25.743 23.3867L18.0298 31.0328C16.6844 32.3666 14.5027 32.3666 13.1572 31.0328L9.7564 27.6616C8.91436 26.8269 8.91436 25.4735 9.7564 24.6388C10.5985 23.8041 11.9637 23.8041 12.8058 24.6388L15.5935 27.4023L22.6937 20.3639C23.5357 19.5292 24.901 19.5292 25.743 20.3639Z" fill="black"/>
</svg>
