<svg width="42" height="44" viewBox="0 0 42 44" fill="none" xmlns="http://www.w3.org/2000/svg">
<path d="M40.1693 0.796875H1.83074C1.09585 0.796875 0.5 1.39273 0.5 2.12762V35.7803C0.5 40.0379 3.96301 43.5008 8.22049 43.5008C10.8762 43.5008 13.2211 42.1531 14.6102 40.1085C15.9994 42.1532 18.3443 43.5009 21 43.5009C23.6557 43.5009 26.0006 42.1532 27.3898 40.1086C28.779 42.1532 31.1238 43.5009 33.7795 43.5009C38.0371 43.5009 41.5 40.0379 41.5 35.7804V2.12771C41.5 2.12768 41.5 2.12765 41.5 2.12762C41.5001 1.39268 40.9042 0.796875 40.1693 0.796875ZM13.2795 35.7804C13.2795 38.5695 11.0096 40.8394 8.22049 40.8394C5.43139 40.8394 3.16148 38.5695 3.16148 35.7804V30.4376C4.51672 31.6156 6.28645 32.3306 8.22049 32.3306C10.1545 32.3306 11.9243 31.6157 13.2795 30.4377V35.7804ZM13.2795 24.5627V24.61C13.2795 27.3991 11.0096 29.669 8.22049 29.669C5.43139 29.669 3.16148 27.3991 3.16148 24.61V24.5627V19.1727C4.51672 20.3507 6.28646 21.0658 8.22049 21.0658C10.1545 21.0658 11.9243 20.3508 13.2795 19.1728V24.5627ZM13.2795 13.3452C13.2795 16.1343 11.0096 18.4042 8.22049 18.4042C5.43139 18.4042 3.16148 16.1343 3.16148 13.3452V3.45836H13.2795V13.3452ZM26.059 35.7804C26.059 38.5695 23.7891 40.8394 21 40.8394C18.2109 40.8394 15.941 38.5695 15.941 35.7804V30.4376C17.2962 31.6156 19.066 32.3306 21 32.3306C22.934 32.3306 24.7038 31.6157 26.059 30.4377V35.7804ZM26.059 24.5628V24.6101C26.059 27.3992 23.7891 29.6691 21 29.6691C18.2109 29.6691 15.941 27.3992 15.941 24.6101V24.5628V19.1728C17.2962 20.3508 19.066 21.0658 21 21.0658C22.934 21.0658 24.7038 20.3509 26.059 19.1728V24.5628ZM26.059 13.3452C26.059 16.1343 23.7891 18.4042 21 18.4042C18.2109 18.4042 15.941 16.1343 15.941 13.3452V3.45836H26.059V13.3452ZM38.8385 35.7804C38.8385 38.5695 36.5686 40.8394 33.7795 40.8394C30.9904 40.8394 28.7205 38.5695 28.7205 35.7804V30.4376C30.0757 31.6156 31.8455 32.3306 33.7795 32.3306C35.7135 32.3306 37.4833 31.6157 38.8385 30.4377V35.7804ZM38.8385 24.5628V24.6101C38.8385 27.3992 36.5686 29.6691 33.7795 29.6691C30.9904 29.6691 28.7205 27.3992 28.7205 24.6101V24.5628V19.1728C30.0757 20.3508 31.8455 21.0658 33.7795 21.0658C35.7135 21.0658 37.4833 20.3509 38.8385 19.1728V24.5628ZM38.8385 13.3452C38.8385 16.1343 36.5686 18.4042 33.7795 18.4042C30.9904 18.4042 28.7205 16.1343 28.7205 13.3452V3.45836H38.8385V13.3452Z" fill="black" stroke="black"/>
</svg>
