<svg width="44" height="44" viewBox="0 0 44 44" fill="none" xmlns="http://www.w3.org/2000/svg">
<path d="M7 42V32M7 12V2M2 7H12M2 37H12M24 4L20.5316 13.0177C19.9676 14.4842 19.6856 15.2174 19.247 15.8342C18.8584 16.3808 18.3808 16.8584 17.8342 17.2471C17.2174 17.6856 16.4842 17.9676 15.0177 18.5316L6 22L15.0177 25.4684C16.4842 26.0324 17.2174 26.3144 17.8342 26.753C18.3808 27.1416 18.8584 27.6192 19.247 28.1658C19.6856 28.7826 19.9676 29.5158 20.5316 30.9822L24 40L27.4684 30.9822C28.0324 29.5158 28.3144 28.7826 28.753 28.1658C29.1416 27.6192 29.6192 27.1416 30.1658 26.753C30.7826 26.3144 31.5158 26.0324 32.9822 25.4684L42 22L32.9822 18.5316C31.5158 17.9676 30.7826 17.6856 30.1658 17.2471C29.6192 16.8584 29.1416 16.3808 28.753 15.8342C28.3144 15.2174 28.0324 14.4842 27.4684 13.0177L24 4Z" stroke="black" stroke-width="4" stroke-linecap="round" stroke-linejoin="round"/>
</svg>
