<svg width="39" height="39" viewBox="0 0 39 39" fill="none" xmlns="http://www.w3.org/2000/svg">
<path d="M19.5009 29.2518C24.8862 29.2518 29.2518 24.8862 29.2518 19.5009C29.2518 14.1156 24.8862 9.75 19.5009 9.75C14.1156 9.75 9.75 14.1156 9.75 19.5009C9.75 24.8862 14.1156 29.2518 19.5009 29.2518Z" fill="black"/>
<path fill-rule="evenodd" clip-rule="evenodd" d="M7.31333 19.4962C7.31333 18.1488 6.22312 17.0586 4.87575 17.0586H2.43757C1.0902 17.0586 0 18.1488 0 19.4962C0 20.8435 1.0902 21.9337 2.43757 21.9337H4.87514C6.22312 21.9337 7.31333 20.8435 7.31333 19.4962Z" fill="black"/>
<path fill-rule="evenodd" clip-rule="evenodd" d="M7.43626 28.1148L5.71045 29.8412C4.75797 30.793 4.75797 32.336 5.71045 33.2879C6.66233 34.2398 8.20531 34.2398 9.15779 33.2879L10.8842 31.5621C11.8361 30.6102 11.8361 29.0666 10.8842 28.1148C9.93111 27.1623 8.38874 27.1623 7.43626 28.1148Z" fill="black"/>
<path fill-rule="evenodd" clip-rule="evenodd" d="M19.504 31.6855C18.1566 31.6855 17.0664 32.7758 17.0664 34.1231V36.5613C17.0664 37.9087 18.1566 38.9989 19.504 38.9989C20.8513 38.9989 21.9415 37.9087 21.9415 36.5613L21.9391 34.1231C21.9415 32.7758 20.8489 31.6855 19.504 31.6855Z" fill="black"/>
<path fill-rule="evenodd" clip-rule="evenodd" d="M31.5651 28.1184C30.615 27.1641 29.072 27.1641 28.1202 28.1159C27.1683 29.0678 27.1683 30.6114 28.1202 31.5633L29.8441 33.2866C30.796 34.2434 32.339 34.2385 33.2909 33.2866C34.2427 32.3348 34.2452 30.7942 33.2909 29.8399L31.5651 28.1184Z" fill="black"/>
<path fill-rule="evenodd" clip-rule="evenodd" d="M36.5672 17.0586L34.1241 17.0635C32.7816 17.0586 31.6914 18.1488 31.6914 19.4962C31.6865 20.8435 32.7816 21.9337 34.1241 21.9337H36.5623C37.9145 21.9386 38.9999 20.8435 38.9999 19.4962C39.0023 18.1512 37.9145 17.0586 36.5672 17.0586Z" fill="black"/>
<path fill-rule="evenodd" clip-rule="evenodd" d="M31.5651 10.88L33.2884 9.15602C34.2476 8.20171 34.2403 6.66116 33.2884 5.70868C32.3384 4.75376 30.796 4.75376 29.8441 5.70624L28.1202 7.43448C27.1683 8.38209 27.1683 9.92446 28.1202 10.8769C29.0672 11.8349 30.615 11.83 31.5651 10.88Z" fill="black"/>
<path fill-rule="evenodd" clip-rule="evenodd" d="M19.504 7.30786C20.8489 7.31761 21.9415 6.21765 21.9415 4.87516V2.43759C21.9415 1.08535 20.8513 1.62869e-05 19.504 1.62869e-05C18.1566 -0.00485886 17.0664 1.08535 17.0664 2.43332L17.0713 4.87577C17.0664 6.21765 18.1566 7.30786 19.504 7.30786Z" fill="black"/>
<path fill-rule="evenodd" clip-rule="evenodd" d="M7.44266 10.8796C8.39026 11.8315 9.92837 11.8315 10.8833 10.8772C11.8425 9.93203 11.8376 8.38478 10.8882 7.43473L9.16419 5.71137C8.20744 4.75402 6.66934 4.76133 5.71686 5.71137C4.75706 6.66141 4.75706 8.20379 5.70954 9.15627L7.44266 10.8796Z" fill="black"/>
</svg>
