<svg width="40" height="40" viewBox="0 0 40 40" fill="none" xmlns="http://www.w3.org/2000/svg">
<path d="M20 40C25.158 40 28 37.3001 28 32.4001C28 25.9143 21.526 20.6584 21.25 20.4384C20.8953 20.1544 20.4544 19.9996 20 19.9996C19.5456 19.9996 19.1047 20.1544 18.75 20.4384C18.474 20.6584 12 25.9143 12 32.4001C12 37.3001 14.842 40 20 40ZM20 24.7223C22.2193 26.7126 23.6407 29.4409 24 32.4001C24 34.6241 23.33 36.0001 20 36.0001C16.67 36.0001 16 34.6241 16 32.4001C16.3593 29.4409 17.7807 26.7126 20 24.7223ZM9.25 0.438743C8.89528 0.154741 8.45441 0 8 0C7.54559 0 7.10472 0.154741 6.75 0.438743C6.474 0.658738 0 5.91464 0 12.4005C0 17.3004 2.842 20.0004 8 20.0004C13.158 20.0004 16 17.3004 16 12.4005C16 5.91464 9.526 0.658738 9.25 0.438743ZM8 16.0005C4.67 16.0005 4 14.6245 4 12.4005C4.35934 9.44123 5.7807 6.71298 8 4.72266C10.2193 6.71298 11.6407 9.44123 12 12.4005C12 14.6245 11.33 16.0005 8 16.0005ZM33.25 0.438743C32.8953 0.154741 32.4544 0 32 0C31.5456 0 31.1047 0.154741 30.75 0.438743C30.474 0.658738 24 5.91464 24 12.4005C24 17.3004 26.842 20.0004 32 20.0004C37.158 20.0004 40 17.3004 40 12.4005C40 5.91464 33.526 0.658738 33.25 0.438743ZM32 16.0005C28.67 16.0005 28 14.6245 28 12.4005C28.3593 9.44123 29.7807 6.71298 32 4.72266C34.2193 6.71298 35.6407 9.44123 36 12.4005C36 14.6245 35.33 16.0005 32 16.0005Z" fill="black"/>
</svg>
